<?xml version="1.0" encoding="UTF-8" standalone="no" ?>
<!DOCTYPE svg PUBLIC "-//W3C//DTD SVG 1.1//EN" "http://www.w3.org/Graphics/SVG/1.1/DTD/svg11.dtd">
<svg xmlns="http://www.w3.org/2000/svg" xmlns:xlink="http://www.w3.org/1999/xlink" version="1.1" width="1080" height="1080" viewBox="0 0 1080 1080" xml:space="preserve">
<desc>Created with Fabric.js 5.2.4</desc>
<defs>
</defs>
<rect x="0" y="0" width="100%" height="100%" fill="transparent"></rect>
<g transform="matrix(1 0 0 1 540 540)" id="6751b5a9-b1bb-4ab4-9c43-d8264e3415e7"  >
<rect style="stroke: none; stroke-width: 1; stroke-dasharray: none; stroke-linecap: butt; stroke-dashoffset: 0; stroke-linejoin: miter; stroke-miterlimit: 4; fill: rgb(255,255,255); fill-rule: nonzero; opacity: 1; visibility: hidden;" vector-effect="non-scaling-stroke"  x="-540" y="-540" rx="0" ry="0" width="1080" height="1080" />
</g>
<g transform="matrix(1 0 0 1 540 540)" id="402ccb5c-f22b-4b8b-ace1-97de923f2931"  >
</g>
<g transform="matrix(1 0 0 1 466.07 502.36)"  >
<path style="stroke: none; stroke-width: 1; stroke-dasharray: none; stroke-linecap: butt; stroke-dashoffset: 0; stroke-linejoin: miter; stroke-miterlimit: 4; fill: rgb(63,61,86); fill-rule: nonzero; opacity: 1;" vector-effect="non-scaling-stroke"  transform=" translate(-526.08, -417.65)" d="M 715.39088 417.65494 C 715.4009433041945 467.8656276181061 695.4592821899134 516.0227053581431 659.9549637740283 551.5270237740283 C 624.4506453581432 587.0313421899134 576.2935676181061 606.9730033041944 526.08288 606.96294 C 421.53225000000003 606.96294 336.77488000000005 522.20545 336.77488000000005 417.65494 C 336.7568331813819 397.31829438954145 340.0168968534251 377.1116844803774 346.4296400000001 357.81256 C 372.2484682206864 280.5187594437938 444.5909149988982 228.38580118163378 526.08289 228.347 C 595.9144772570053 228.32274208893702 660.0845627239044 266.7568109423131 693.0210999999999 328.33306999999985 C 697.0288316824164 335.78910085361775 700.5250488084534 343.5089621743983 703.48557 351.4392600000001 C 703.89557 352.54347000000007 704.2954100000001 353.64769000000007 704.6844100000001 354.76257000000004 L 704.6844100000001 354.77310000000006 Q 707.2876200000001 362.12442000000004 709.26998 369.7494500000001 C 713.3470216757422 385.39116256989655 715.4040544709694 401.4906191859878 715.39088 417.65494000000007 Z" stroke-linecap="round" />
</g>
<g transform="matrix(1 0 0 1 408.17 409.72)"  >
<path style="stroke: none; stroke-width: 1; stroke-dasharray: none; stroke-linecap: butt; stroke-dashoffset: 0; stroke-linejoin: miter; stroke-miterlimit: 4; fill: rgb(255,255,255); fill-rule: nonzero; opacity: 1;" vector-effect="non-scaling-stroke"  transform=" translate(-468.19, -319.72)" d="M 505.371 289.93115 C 488.1312796374431 280.6083992026521 467.55316832685435 279.76649071705674 449.60949999999997 287.64979 C 441.81302 291.04278999999997 433.60366999999997 297.12951 431.0028 308.12095 C 441.5218 301.913 455.13847999999996 311.72153 457.84529999999995 327.4565 L 457.21343999999993 327.63069 C 455.78378999999995 338.52932000000004 458.97529999999995 350.39498000000003 465.1541699999999 357.15297000000004 C 465.96539999999993 350.13342000000006 470.5809499999999 345.35597 475.1207399999999 342.37162000000006 C 479.6605299999999 339.38732000000005 484.6827399999999 337.21943000000005 488.1478099999999 332.0897300000001 C 492.25567999999987 326.0084000000001 493.2988099999999 317.1205900000001 494.93070999999986 309.0127300000001 C 496.56263 300.90483 499.65869 292.1904 505.371 289.93115 Z" stroke-linecap="round" />
</g>
<g transform="matrix(1 0 0 1 338.64 456.07)"  >
<path style="stroke: none; stroke-width: 1; stroke-dasharray: none; stroke-linecap: butt; stroke-dashoffset: 0; stroke-linejoin: miter; stroke-miterlimit: 4; fill: rgb(255,255,255); fill-rule: nonzero; opacity: 1;" vector-effect="non-scaling-stroke"  transform=" translate(-398.66, -366.07)" d="M 446.48934 382.675 C 443.57608000000005 387.05 439.68480000000005 389.79511 436.19317 393.21317 C 432.71208 396.64176 429.39903 401.26917 428.705 407.21137999999996 C 428.26322999999996 411.01856 428.94687 414.88879 428.85211999999996 418.73821999999996 C 428.75762999999995 422.58738999999997 427.47444999999993 426.92042999999995 424.85569999999996 427.87751999999995 C 420.72241999999994 429.37086999999997 417.56728 421.69345999999996 413.31845999999996 421.15707 C 409.94237999999996 420.73636 406.90304999999995 426.04756 407.88106999999997 430.65407 C 408.85920999999996 435.26057 413.45518999999996 437.30082 416.09498999999994 434.29294999999996 C 418.4823999999999 438.29994999999997 416.79955999999993 445.56739 413.2133099999999 446.79780999999997 C 412.8345799999999 449.32194 412.4561099999999 451.83554 412.0879099999999 454.35954999999996 C 403.0221699999999 448.01769999999993 393.8617999999999 441.57082999999994 386.15280999999993 432.28414 C 377.5790257788319 422.04338322995403 372.26122049293866 409.4740648532949 370.88193999999993 396.18947 C 369.8828699999999 385.51457999999997 371.3656899999999 373.30422999999996 366.46480999999994 365.09047 C 362.54180999999994 358.51727999999997 355.81080999999995 357.06579 349.75296999999995 357.4761 C 348.6487599999999 357.54965999999996 347.53396999999995 357.67586 346.42965999999996 357.81259 C 350.00222134476 347.082577563332 354.53958106944026 336.69830533619324 359.9860999999999 326.78711 C 361.21867935701056 326.2580306515464 362.3640044259108 325.545295906359 363.38309999999996 324.67316 C 369.02037999999993 319.88795 371.52345999999994 310.20161 376.09837999999996 303.50216 Q 376.54015 302.8553 377.01338 302.24016 C 381.69356999999997 296.12966 387.96173 292.98505 394.01959999999997 290.06126 C 407.42891 283.55126 421.22722999999996 276.95699 435.38334999999995 277.86144 L 431.35534999999993 278.25057000000004 Q 424.30366999999995 298.00173000000007 417.24134999999995 317.75290000000007 Q 416.16851999999994 320.78170000000006 415.07489 323.8212900000001 C 412.40351 331.3093400000001 409.64803 339.2813900000001 410.05821 347.6635000000001 C 410.30008 352.6275000000001 412.02477999999996 357.9282100000001 415.30620999999996 359.6319800000001 C 418.36659999999995 361.2095400000001 421.71108999999996 359.2744300000001 424.66632999999996 357.3602500000001 C 425.91794 356.5609300000001 427.15900999999997 355.7616200000001 428.41049 354.95179000000013 C 432.90130999999997 352.05958000000015 437.87588999999997 349.0937900000001 442.61911 351.02892000000014 C 446.96268999999995 352.7958600000001 450.17033 358.6959200000001 450.7804 365.05884000000015 C 451.3396914744185 371.2440131359316 449.83045344554137 377.43991312213177 446.48934 382.675 Z" stroke-linecap="round" />
</g>
<g transform="matrix(1 0 0 1 391.23 593.18)"  >
<path style="stroke: none; stroke-width: 1; stroke-dasharray: none; stroke-linecap: butt; stroke-dashoffset: 0; stroke-linejoin: miter; stroke-miterlimit: 4; fill: rgb(255,255,255); fill-rule: nonzero; opacity: 1;" vector-effect="non-scaling-stroke"  transform=" translate(-451.24, -503.18)" d="M 473.19842 472.57227 Q 453.52468 460.45891 433.85079 448.34555 L 434.07342 447.77213 C 425.91859999999997 450.87813 422.53295 465.37382 423.88066 477.22813 C 425.2283 489.08255 429.79810999999995 499.67957 432.10666 511.2302 C 435.21948318563665 527.0368326201655 434.0446025965123 543.3885613321252 428.70399 558.58781 C 445.95057310009145 539.2360686763612 461.21364875347507 518.2040569788829 474.2642600000001 495.80726999999996 C 476.0873595200888 492.9845250420173 477.47655416760443 489.90418366301844 478.38543999999996 486.66914 C 479.21864999999997 483.22735 479.09051999999997 479.08959000000004 477.42186999999996 476.32961 C 476.348251023397 474.74557700838636 474.89666432669446 473.4541908764354 473.19842 472.57227 Z" stroke-linecap="round" />
</g>
<g transform="matrix(1 0 0 1 373.31 421.5)"  >
<path style="stroke: none; stroke-width: 1; stroke-dasharray: none; stroke-linecap: butt; stroke-dashoffset: 0; stroke-linejoin: miter; stroke-miterlimit: 4; fill: rgb(255,255,255); fill-rule: nonzero; opacity: 1;" vector-effect="non-scaling-stroke"  transform=" translate(-433.32, -331.5)" d="M 421.43456 325.65321 C 420.04186 328.7846 419.50602 332.96005 420.76988 336.20011 C 422.06063 339.50911 424.78931 341.00454 427.30154 342.24962999999997 L 434.54867 345.84187 C 436.95967 347.03693 439.55836 348.24395 442.01619 347.2607 C 444.98061 346.07479 447.03601 341.42733 446.50431 337.11285 C 445.93838999999997 332.52167 443.04443 329.36355 440.36793 326.67417 Q 434.74956 321.02886 429.13126 315.38356 L 427.02037 317.96898999999996 C 424.7371687383517 320.1959860276767 422.84842210137697 322.79427431223604 421.43456 325.65321 Z" stroke-linecap="round" />
</g>
<g transform="matrix(1 0 0 1 547.15 464.96)"  >
<path style="stroke: none; stroke-width: 1; stroke-dasharray: none; stroke-linecap: butt; stroke-dashoffset: 0; stroke-linejoin: miter; stroke-miterlimit: 4; fill: rgb(255,255,255); fill-rule: nonzero; opacity: 1;" vector-effect="non-scaling-stroke"  transform=" translate(-607.16, -374.96)" d="M 676.54061 374.73455 Q 681.43123 375.88614 686.32161 377.03774 C 685.75361 388.04925 680.2953299999999 398.24039999999997 672.97546 401.93174 C 669.92546 403.46732 666.52846 404.03516 664.00433 406.90644 C 661.7221999999999 409.51466 660.56522 413.57412 659.50298 417.455 Q 656.71065 427.61463 653.91833 437.774 C 651.92018 445.07294 649.35407 453.18172 644.15855 455.811 C 639.69931 458.07207999999997 634.59855 455.30607 631.16995 450.668 C 627.74136 446.03000000000003 625.64846 439.79334 623.6186 433.71455000000003 C 623.7448 440.34025 620.66336 446.83989 616.2987400000001 449.14307 C 611.92358 451.44626 606.6018600000001 449.36389 603.6782000000001 444.22114000000005 C 601.57478 440.52962 600.7019100000001 435.66006000000004 598.64047 431.91604000000007 C 596.57915 428.17204000000004 592.2566400000001 426.02648000000005 590.0059600000001 429.53916000000004 C 588.5230100000001 431.87406000000004 588.71225 435.44977000000006 587.9761000000001 438.41567000000003 C 586.82977 443.02204000000006 583.3592000000001 445.91425000000004 579.9201 446.16677000000004 C 576.4915100000001 446.41918000000004 573.14701 444.44195 570.2758600000001 441.76004000000006 C 564.35472 436.20697000000007 559.9900900000001 427.39376000000004 558.29686 417.6022700000001 C 557.55019 413.2376400000001 557.33986 408.48401000000007 558.6334800000001 404.3927100000001 C 559.9270700000001 400.30171000000007 563.0506200000001 397.1465400000001 566.1531200000001 397.9247900000001 C 568.1935000000001 393.61268000000007 564.1654900000001 387.89143000000007 560.53701 388.39623000000006 C 556.89801 388.90103000000005 554.04791 392.80284000000006 551.06109 395.80032000000006 C 548.08479 398.79767000000004 543.9200900000001 400.97465000000005 540.92258 397.99832000000004 C 540.94363 400.76432000000005 538.69295 402.59432000000004 536.7473200000001 402.36294000000004 C 534.8120700000001 402.14212000000003 533.08738 400.58561000000003 531.31005 399.48126 C 524.44235 395.20073 515.7236200000001 398.04043 510.84367000000003 406.13855 C 513.89367 393.16047000000003 518.36343 378.26821 527.7340800000001 375.21822000000003 C 531.56245 373.96674 535.7377100000001 374.9974 539.35554 372.83081000000004 C 545.76054 368.99217000000004 547.05413 354.48903000000007 541.52212 348.50481 C 542.22669 354.16289 542.09012 360.76767 539.10312 364.63802000000004 C 536.1162899999999 368.50838000000005 529.84801 365.98411000000004 530.22674 360.26287 C 529.36426 364.20678000000004 525.0733299999999 364.80633 523.09611 361.77727000000004 C 521.10836 358.74847000000005 521.27667 353.79495000000003 522.68592 350.17699000000005 C 524.09517 346.55903000000006 526.49311 343.96135000000004 528.81735 341.46880000000004 C 533.81298 336.11562000000004 538.8823 330.69929 544.6667100000001 327.33373000000006 C 550.4616500000001 323.9683100000001 557.15052 322.83251000000007 562.95585 326.1770000000001 C 566.0165000000001 327.9438100000001 568.7088500000001 330.8886500000001 571.8323600000001 332.4451600000001 C 574.9560400000001 334.0121600000001 578.9208800000001 333.8124400000001 580.9928500000001 330.1523700000001 C 583.3170900000001 326.07173000000006 582.2232700000001 320.0138600000001 583.0857500000001 314.91309000000007 C 584.6317500000001 305.8999800000001 593.64484 301.68261000000007 598.64047 307.63520000000005 C 594.90697 306.67820000000006 591.04714 311.09538000000003 590.58432 316.4486800000001 C 590.1111000000001 321.80185000000006 592.81407 327.2076800000001 596.4319 328.8273400000001 C 602.5108200000001 331.5196500000001 608.4634100000001 324.7465600000001 613.05951 318.4784100000001 Q 620.2531200000001 308.6344100000001 627.4679000000001 298.8009300000001 C 628.2359348544347 297.684749259903 629.0979510787688 296.6362445451587 630.0445400000001 295.6668600000001 C 633.1705428158555 292.6198506423325 638.1237279311724 292.51868357458034 641.3715400000001 295.4355100000001 C 646.23044 299.40035000000006 648.5127000000001 307.53019000000006 652.4987300000001 313.1252300000001 C 658.2831400000001 321.2549400000001 666.9387300000002 323.2321600000001 674.9947300000001 324.8097300000001 Q 684.0025700000001 326.56080000000014 693.0212100000001 328.3329400000001 C 697.0289416824164 335.78897085361785 700.5251588084535 343.5088321743984 703.4856800000002 351.4391300000002 C 693.305 355.76164 683.91311 363.84937 676.54061 374.73455 Z" stroke-linecap="round" />
</g>
<g transform="matrix(1 0 0 1 614.25 603.09)"  >
<path style="stroke: none; stroke-width: 1; stroke-dasharray: none; stroke-linecap: butt; stroke-dashoffset: 0; stroke-linejoin: miter; stroke-miterlimit: 4; fill: rgb(255,255,255); fill-rule: nonzero; opacity: 1;" vector-effect="non-scaling-stroke"  transform=" translate(-674.27, -513.08)" d="M 695.95528 501.2765 C 691.4494676699632 510.4256241867412 686.2087679995833 519.194087283094 680.28476 527.49559 C 676.49863 525.87591 672.42851 528.76812 668.88425 531.48159 C 665.18225 534.32116 660.73349 537.08717 656.93683 534.5 C 653.05607 531.84967 651.80447 524.43518 653.03502 518.556 C 654.26544 512.6875 657.33635 508.01784000000004 660.31278 503.57965 C 663.46791 498.868 666.84386 493.97752 671.2295399999999 492.14755 C 675.6257499999999 490.31755000000004 681.2733099999999 492.90475000000004 682.5565399999999 499.15198000000004 L 685.66954 499.04671 C 683.9236599999999 496.64891 684.83877 491.68471 687.18407 490.81186 C 689.8869100000001 489.79173000000003 692.23233 493.50417000000004 693.83083 496.78563 C 694.546 498.26849 695.27164 499.762 695.95528 501.2765 Z" stroke-linecap="round" />
</g>
<g transform="matrix(1 0 0 1 477.73 558.24)"  >
<path style="stroke: none; stroke-width: 1; stroke-dasharray: none; stroke-linecap: butt; stroke-dashoffset: 0; stroke-linejoin: miter; stroke-miterlimit: 4; fill: rgb(255,255,255); fill-rule: nonzero; opacity: 1;" vector-effect="non-scaling-stroke"  transform=" translate(-537.74, -468.24)" d="M 576.72735 456.85307 C 570.03601 457.27387 564.73578 449.03643 561.21371 440.93276000000003 C 557.69165 432.82901000000004 554.47797 423.56182 548.44035 419.43703000000005 C 544.99054 417.08008000000007 541.05745 416.75671000000006 537.3154999999999 415.61458000000005 C 533.5735 414.47258000000005 529.6568399999999 412.10934000000003 527.8680899999999 407.29666000000003 L 523.62349 405.58193000000006 C 518.0178 408.73393000000004 512.33814 411.94349000000005 507.50792999999993 417.07283000000007 C 502.0903969019923 422.8275393643571 498.7161081000978 430.20443031793565 497.90523999999994 438.0662900000001 C 497.09439999999995 446.5623900000001 500.08851999999996 456.0359400000001 505.6831199999999 459.2275100000001 C 510.1036999999999 461.7494000000001 515.25051 460.1598300000001 519.72831 462.4685600000001 C 525.3228399999999 465.35298000000006 528.64431 473.7321600000001 529.90163 482.00540000000007 C 531.1589499999999 490.27864000000005 530.84029 498.8765200000001 531.73982 507.24365000000006 C 532.63935 515.61078 535.11853 524.3171400000001 540.24915 528.6049800000001 C 546.66951 533.9706900000001 556.09035 529.5119800000001 558.97093 519.74454 C 560.38393 514.95343 560.3352 509.54721 561.39199 504.57384 C 563.25299 495.81546000000003 568.27492 489.3175 572.25799 482.13301 C 576.24114 474.94861 579.37645 465.19075 576.72735 456.85307 Z" stroke-linecap="round" />
</g>
<g transform="matrix(1 0 0 1 455.14 457.58)"  >
<path style="stroke: none; stroke-width: 1; stroke-dasharray: none; stroke-linecap: butt; stroke-dashoffset: 0; stroke-linejoin: miter; stroke-miterlimit: 4; fill: rgb(255,255,255); fill-rule: nonzero; opacity: 1;" vector-effect="non-scaling-stroke"  transform=" translate(-515.16, -367.58)" d="M 510.60693 370.79 C 511.23094452328655 371.3644338021736 511.81324811384184 371.98258811737855 512.34942 372.63977 C 513.4803905279482 374.58967273455386 513.4392037609086 377.0053843998822 512.24242 378.9156 C 513.8719411433874 378.8227957900728 515.3882254454611 378.0521498763579 516.42368 376.79049 C 517.6449326459373 375.39959612546073 518.7192501192894 373.8862757741071 519.62953 372.27461999999997 C 520.31205 371.16177 521.0378900000001 369.65711 520.57475 368.33534999999995 C 520.25865 367.43321 519.51114 367.04834999999997 518.98708 366.36992999999995 C 518.15649 365.29459999999995 517.95062 363.58656999999994 517.52067 362.11063999999993 C 516.59221 358.9227899999999 514.36803 356.5787199999999 511.9536 356.2435699999999 L 512.28893 356.30772999999994 C 511.28038000000004 356.6532199999999 510.57613000000003 358.2548499999999 510.79907000000003 359.69596999999993 C 511.0022 361.0083899999999 511.84553000000005 362.0979699999999 511.76162000000005 363.4364799999999 C 511.64101000000005 365.3612099999999 509.71744000000007 366.2644799999999 509.59862000000004 368.1894799999999 C 509.57987911051055 369.15515053468135 509.9421077963105 370.08937011199043 510.60693 370.79 Z" stroke-linecap="round" />
</g>
<g transform="matrix(1 0 0 1 439.43 427.78)"  >
<path style="stroke: none; stroke-width: 1; stroke-dasharray: none; stroke-linecap: butt; stroke-dashoffset: 0; stroke-linejoin: miter; stroke-miterlimit: 4; fill: rgb(230,230,230); fill-rule: nonzero; opacity: 1;" vector-effect="non-scaling-stroke"  transform=" translate(-499.44, -337.77)" d="M 499.14247 338.08151 C 499.15241 338.0788 499.16241 338.07824999999997 499.17235 338.07570999999996 C 499.3781630261002 337.8881457994041 499.56903815124303 337.68481960722505 499.74324 337.46757999999994 Z" stroke-linecap="round" />
</g>
<g transform="matrix(1 0 0 1 436.83 432.81)"  >
<path style="stroke: none; stroke-width: 1; stroke-dasharray: none; stroke-linecap: butt; stroke-dashoffset: 0; stroke-linejoin: miter; stroke-miterlimit: 4; fill: rgb(255,255,255); fill-rule: nonzero; opacity: 1;" vector-effect="non-scaling-stroke"  transform=" translate(-496.84, -342.8)" d="M 501.14925 347.11614 C 502.62873 346.16479 503.45499 343.53369 502.96578 341.33153999999996 C 502.4797 339.14297999999997 500.75932 337.67153999999994 499.17235 338.07570999999996 C 498.2365044820616 339.0244634811191 496.87803839604993 339.42440977265966 495.5774 339.13409999999993 C 494.59631 338.88150999999993 493.5192 338.2310499999999 492.66834 338.97023999999993 C 492.1815668337302 339.5222444896231 491.84088994341244 340.1874359727374 491.67744 340.90502999999995 Q 491.20502 342.35529999999994 490.73254 343.80530999999996 C 490.5829959516826 344.15142257718065 490.5440089849518 344.5352781302987 490.62091 344.90439 C 490.74358405546525 345.20520416450694 491.0141814848347 345.42032533097563 491.33491 345.47200999999995 Q 494.16943 346.30767 497.00390999999996 347.14323999999993 C 498.38094 347.54918 499.86781 347.94034 501.14925 347.11614 Z" stroke-linecap="round" />
</g>
<g transform="matrix(1 0 0 1 579.23 562.17)"  >
<path style="stroke: none; stroke-width: 1; stroke-dasharray: none; stroke-linecap: butt; stroke-dashoffset: 0; stroke-linejoin: miter; stroke-miterlimit: 4; fill: rgb(255,255,255); fill-rule: nonzero; opacity: 1;" vector-effect="non-scaling-stroke"  transform=" translate(-639.25, -472.16)" d="M 643.80516 471.848 Q 642.49485 469.70289 641.18467 467.55762 C 640.3266510466536 465.90144566464164 639.1536400354626 464.4286540387524 637.73142 463.22184 C 637.0997737534973 462.69271180369276 636.2814165166229 462.44070263025907 635.4615341146659 462.52283956354415 C 634.641651712709 462.6049764968293 633.8895493300681 463.01431644927135 633.37542 463.65823 L 633.48182 464.47509 C 635.47282 466.97309 637.5793699999999 469.74799 638.0843699999999 473.45534000000004 C 638.2835499999999 474.91685 638.2142299999999 476.42948 638.3888699999999 477.89734000000004 C 638.5635099999998 479.3652000000001 639.0598699999999 480.88744 640.0072399999999 481.52034000000003 C 641.38267 482.43925 642.9977299999999 481.08441000000005 643.9766599999999 479.43121 C 644.8517726419881 478.07337185758894 645.244354472217 476.4604896821542 645.0911699999999 474.85236000000003 C 644.8729799121015 473.7733394283069 644.4352453812819 472.750709654811 643.80516 471.848 Z" stroke-linecap="round" />
</g>
<g transform="matrix(1 0 0 1 618.6 503.86)"  >
<path style="stroke: none; stroke-width: 1; stroke-dasharray: none; stroke-linecap: butt; stroke-dashoffset: 0; stroke-linejoin: miter; stroke-miterlimit: 4; fill: rgb(230,230,230); fill-rule: nonzero; opacity: 1;" vector-effect="non-scaling-stroke"  transform=" translate(-678.62, -413.86)" d="M 682.68046 417.23054 Q 683.05938 414.74562000000003 683.4384600000001 412.26066000000003 C 683.8485515090053 410.4410631311704 683.8995651314285 408.5589193023529 683.58864 406.71978 C 683.4461332928007 405.9082176418962 682.9823335173918 405.18843083068526 682.3021920764901 404.7232972551868 C 681.6220506355884 404.2581636796884 680.7830592728596 404.0870006622779 679.9750700000001 404.24854 L 679.5304400000001 404.942 C 679.4450400000001 408.1352 679.2697100000001 411.61473 677.2686600000001 414.77626 C 676.4798800000001 416.02266 675.45276 417.13525999999996 674.6411200000001 418.37071 C 673.8294800000002 419.60616 673.2289400000001 421.09038999999996 673.5461900000001 422.18471 C 674.0067200000001 423.77344999999997 676.1148000000002 423.77697 677.9283400000002 423.14258 C 679.4722494381831 422.6673048024852 680.8112360911928 421.68617216720787 681.7296200000002 420.35722 C 682.25755128258 419.3911936024133 682.5812002056323 418.32692767467665 682.68046 417.23054 Z" stroke-linecap="round" />
</g>
<g transform="matrix(1 0 0 1 595.54 556.09)"  >
<path style="stroke: none; stroke-width: 1; stroke-dasharray: none; stroke-linecap: butt; stroke-dashoffset: 0; stroke-linejoin: miter; stroke-miterlimit: 4; fill: rgb(255,255,255); fill-rule: nonzero; opacity: 1;" vector-effect="non-scaling-stroke"  transform=" translate(-655.55, -466.09)" d="M 657.50794 473.70914 C 657.93503 472.48163999999997 657.31845 471.07342 657.18822 469.71630999999996 C 657.1257229346785 467.9638048052754 657.5903515407384 466.2328436166151 658.52204 464.74719999999996 C 659.4474624810531 463.345680792546 660.1486636096852 461.80841827962615 660.60037 460.19082 C 660.7906956541253 459.453774022321 660.7559675758791 458.6766222538623 660.50066 457.95948999999996 C 660.2115200000001 457.30994 659.51116 457.01366999999993 659.1095 457.52799999999996 L 659.96914 458.08165999999994 C 658.8083662183706 457.8745331901209 657.6157990226872 457.9322836514827 656.4804700000001 458.25059999999996 C 655.1659953375049 458.75379163209294 654.1792791920981 459.86608684692345 653.8364 461.23117999999994 C 653.6944523806451 462.2799700336696 653.4624792746725 463.31459317153735 653.14305 464.3235899999999 C 652.63027 465.3775899999999 651.63764 465.7281899999999 651.01387 466.65334999999993 C 650.1497200403187 468.3194299374331 650.1827021861523 470.30867359605406 651.10161 471.9451899999999 C 651.8849523354171 473.2628692289682 653.1302840339218 474.2421863287308 654.5955100000001 474.6927599999999 C 655.64528 475.06942 657.02766 475.08927 657.50794 473.70914 Z" stroke-linecap="round" />
</g>
<g transform="matrix(1 0 0 1 623.95 569.69)"  >
<path style="stroke: none; stroke-width: 1; stroke-dasharray: none; stroke-linecap: butt; stroke-dashoffset: 0; stroke-linejoin: miter; stroke-miterlimit: 4; fill: rgb(255,255,255); fill-rule: nonzero; opacity: 1;" vector-effect="non-scaling-stroke"  transform=" translate(-683.97, -479.69)" d="M 681.91 481.07154 C 682.2895069871506 482.0591674031157 682.7979111955353 482.9922908732035 683.4219999999999 483.84666000000004 C 684.5902199999999 485.02341000000007 686.1779499999999 484.30026000000004 687.5952399999999 484.01423000000005 C 690.2153992733156 483.60046820706873 692.8513090525767 484.6577360445418 694.4593099999998 486.7674200000001 C 693.3438471643288 481.205040977597 689.597078676325 476.53055912890653 684.41091 474.231 C 681.0699099999999 472.86899999999997 677.5511799999999 472.73741 674.0767699999999 472.615 L 673.4766399999999 472.7688 C 675.00587 477.22036 679.808 477.12076 681.91 481.07154 Z" stroke-linecap="round" />
</g>
<g transform="matrix(1 0 0 1 518.63 580.03)"  >
<path style="stroke: none; stroke-width: 1; stroke-dasharray: none; stroke-linecap: butt; stroke-dashoffset: 0; stroke-linejoin: miter; stroke-miterlimit: 4; fill: rgb(230,230,230); fill-rule: nonzero; opacity: 1;" vector-effect="non-scaling-stroke"  transform=" translate(-578.65, -490.03)" d="M 578.55783 490.17659 L 578.56662 490.19597999999996 Q 578.6539799999999 490.02797999999996 578.7412099999999 489.85974 Z" stroke-linecap="round" />
</g>
<g transform="matrix(1 0 0 1 515.51 592.15)"  >
<path style="stroke: none; stroke-width: 1; stroke-dasharray: none; stroke-linecap: butt; stroke-dashoffset: 0; stroke-linejoin: miter; stroke-miterlimit: 4; fill: rgb(255,255,255); fill-rule: nonzero; opacity: 1;" vector-effect="non-scaling-stroke"  transform=" translate(-575.52, -502.14)" d="M 574.8559 497.342 C 574.04855695466 498.8077080966018 573.3542508552978 500.33289353812535 572.77903 501.90427 C 572.0174298150245 504.449472294649 571.5131634792102 507.064677606783 571.27381 509.71058000000005 C 571.08581 511.21505 571.02781 513.13652 571.97035 513.86963 C 572.5302220413971 514.2412382134245 573.2789252127639 514.1395567666323 573.71941 513.6320900000001 C 574.2430036451944 513.0780146831202 574.6714202183043 512.4412099203628 574.98734 511.74742000000003 C 576.8399475850748 508.55676884087603 578.2782987380647 505.1429850556994 579.26762 501.58860000000004 C 580.16977 497.84482 580.1613 493.43726000000004 578.56662 490.19594000000006 Q 576.71136 493.76906 574.8559 497.342 Z" stroke-linecap="round" />
</g>
<g transform="matrix(1 0 0 1 484.22 389.4)"  >
<path style="stroke: none; stroke-width: 1; stroke-dasharray: none; stroke-linecap: butt; stroke-dashoffset: 0; stroke-linejoin: miter; stroke-miterlimit: 4; fill: rgb(230,230,230); fill-rule: nonzero; opacity: 1;" vector-effect="non-scaling-stroke"  transform=" translate(-544.23, -299.41)" d="M 539.14331 306.43983 C 540.3451968059926 307.6145002715557 542.1300861260187 307.96284870468173 543.68546 307.32629999999995 C 545.2613521108547 306.63729713635 546.7069962155556 305.6823766322515 547.9591700000001 304.50329999999997 C 548.9960314671482 303.7361103484772 549.8755986975674 302.7765898681126 550.5499100000001 301.67706 C 551.3002184808495 300.34998855745914 551.4909449575366 298.7786866799658 551.07991 297.31065 C 550.49462 295.5989 549.00954 295.02512 547.69942 294.63659 Q 544.55325 293.70359 541.40701 292.77068 L 542.92427 291.40315000000004 C 541.3632699999999 290.56536000000006 539.63627 292.12022 538.66049 294.04522000000003 C 538.034762956231 295.30216060749274 537.5985933750774 296.64482302782665 537.36617 298.02953 C 536.84394 301.051 537.35456 304.64906 539.14331 306.43983 Z" stroke-linecap="round" />
</g>
<g transform="matrix(1 0 0 1 518.87 380.2)"  >
<path style="stroke: none; stroke-width: 1; stroke-dasharray: none; stroke-linecap: butt; stroke-dashoffset: 0; stroke-linejoin: miter; stroke-miterlimit: 4; fill: rgb(230,230,230); fill-rule: nonzero; opacity: 1;" vector-effect="non-scaling-stroke"  transform=" translate(-578.89, -290.2)" d="M 576.17373 294.00836 C 577.4006849495395 295.3608786750079 579.4667511995347 295.52896098646966 580.8961899999999 294.39254999999997 C 582.0950816037099 293.4920400752676 582.8544863806858 292.12420178784254 582.9848499999999 290.63045999999997 C 583.1333 288.98062 582.31756 287.14687999999995 581.1524499999999 287.00446 L 581.4191 285.45975 C 579.17473 285.05445 576.41291 284.97324 575.21016 287.69874999999996 C 574.3846218125541 289.82345438098196 574.7516628954893 292.226897916271 576.17373 294.00836 Z" stroke-linecap="round" />
</g>
<g transform="matrix(1 0 0 1 505.91 379.48)"  >
<path style="stroke: none; stroke-width: 1; stroke-dasharray: none; stroke-linecap: butt; stroke-dashoffset: 0; stroke-linejoin: miter; stroke-miterlimit: 4; fill: rgb(0,0,0); fill-rule: nonzero; opacity: 1;" vector-effect="non-scaling-stroke"  transform=" translate(-565.93, -289.48)" d="M 571.22709 211.86454 C 543.8276528403143 208.77386142978517 519.1105300572277 228.48000300805063 516.01985 255.87944 C 512.92918 283.27887 527.36402 342.77752 553.68173 367.40749 C 566.07344 320.21849 609.49636 292.22866999999997 615.24199 267.07177 C 621.38138 240.19076 598.62652 214.95522 571.22709 211.86454 Z" stroke-linecap="round" />
</g>
<g transform="matrix(1 0 0 1 502.11 346.49)" id="a2705e7e-530b-43fb-b0c6-4087ca2c8018"  >
<circle style="stroke: none; stroke-width: 1; stroke-dasharray: none; stroke-linecap: butt; stroke-dashoffset: 0; stroke-linejoin: miter; stroke-miterlimit: 4; fill: rgb(255,255,255); fill-rule: nonzero; opacity: 1;" vector-effect="non-scaling-stroke"  cx="0" cy="0" r="16.28242" />
</g>
<g transform="matrix(1 0 0 1 484.99 470.22)" id="bb575e01-1284-49d3-8651-037e5b7ffa75"  >
<circle style="stroke: none; stroke-width: 1; stroke-dasharray: none; stroke-linecap: butt; stroke-dashoffset: 0; stroke-linejoin: miter; stroke-miterlimit: 4; fill: rgb(0,0,0); fill-rule: nonzero; opacity: 1;" vector-effect="non-scaling-stroke"  cx="0" cy="0" r="10.66463" />
</g>
<g transform="matrix(1 0 0 1 511.15 348.98)"  >
<path style="stroke: none; stroke-width: 1; stroke-dasharray: none; stroke-linecap: butt; stroke-dashoffset: 0; stroke-linejoin: miter; stroke-miterlimit: 4; fill: rgb(35,31,32); fill-rule: nonzero; opacity: 0.2;" vector-effect="non-scaling-stroke"  transform=" translate(-571.16, -258.98)" d="M 575.59911 244.82842 C 583.306956131216 249.4600152218447 585.8007502218447 259.46310886878393 581.169155 267.17095499999994 C 576.5375597781552 274.87880113121594 566.534466131216 277.37259522184473 558.82662 272.741 C 566.6218091103435 274.47508901784613 574.5239556132985 270.29908112651367 577.4829551528791 262.8817797498272 C 580.4419546924596 255.4644783731407 577.584113105868 246.99596594600322 570.7358200000001 242.8883 C 572.4509660735305 243.26840912005676 574.0932934932714 243.9235854047504 575.59911 244.82842 Z" stroke-linecap="round" />
</g>
<g transform="matrix(1 0 0 1 521.57 380.31)"  >
<path style="stroke: none; stroke-width: 1; stroke-dasharray: none; stroke-linecap: butt; stroke-dashoffset: 0; stroke-linejoin: miter; stroke-miterlimit: 4; fill: rgb(35,31,32); fill-rule: nonzero; opacity: 0.2;" vector-effect="non-scaling-stroke"  transform=" translate(-581.59, -290.3)" d="M 615.30574 267.12439 C 609.56012 292.28126000000003 566.13719 320.27113 553.74549 367.4601 C 551.270381140118 365.12150769649656 548.9716243758768 362.6030583646504 546.86803 359.92536 C 560.79277 315.56905 601.51297 288.6166 607.06432 264.31054 C 612.0328099999999 242.55612 598.07615 221.88154 578.0496999999999 213.14796 C 602.29173 219.24193 620.93191 242.49051 615.30574 267.12439 Z" stroke-linecap="round" />
</g>
<g transform="matrix(1 0 0 1 354.65 423.68)"  >
<path style="stroke: none; stroke-width: 1; stroke-dasharray: none; stroke-linecap: butt; stroke-dashoffset: 0; stroke-linejoin: miter; stroke-miterlimit: 4; fill: rgb(0,0,0); fill-rule: nonzero; opacity: 1;" vector-effect="non-scaling-stroke"  transform=" translate(-414.67, -333.68)" d="M 418.64434 275.39608 C 398.0682986720261 273.0750895983658 379.5065858052999 287.8737292815637 377.18559 308.44977 C 374.86458999999996 329.02577 385.70468 373.70725 405.46837999999997 392.20352 C 414.77412999999996 356.76621 447.38325999999995 335.7468 451.69802999999996 316.85483 C 456.3085 296.6681 439.22038 277.71708 418.64434 275.39608 Z" stroke-linecap="round" />
</g>
<g transform="matrix(1 0 0 1 351.8 398.91)" id="b2d5ab8a-e71c-4a1a-aadf-98f8ab95825b"  >
<circle style="stroke: none; stroke-width: 1; stroke-dasharray: none; stroke-linecap: butt; stroke-dashoffset: 0; stroke-linejoin: miter; stroke-miterlimit: 4; fill: rgb(255,255,255); fill-rule: nonzero; opacity: 1;" vector-effect="non-scaling-stroke"  cx="0" cy="0" r="12.22754" />
</g>
<g transform="matrix(1 0 0 1 338.94 491.83)" id="bac33ac8-32b5-423c-9bc5-6c03ceb8d8dc"  >
<circle style="stroke: none; stroke-width: 1; stroke-dasharray: none; stroke-linecap: butt; stroke-dashoffset: 0; stroke-linejoin: miter; stroke-miterlimit: 4; fill: rgb(0,0,0); fill-rule: nonzero; opacity: 1;" vector-effect="non-scaling-stroke"  cx="0" cy="0" r="8.00877" />
</g>
<g transform="matrix(1 0 0 1 358.58 400.77)"  >
<path style="stroke: none; stroke-width: 1; stroke-dasharray: none; stroke-linecap: butt; stroke-dashoffset: 0; stroke-linejoin: miter; stroke-miterlimit: 4; fill: rgb(35,31,32); fill-rule: nonzero; opacity: 0.2;" vector-effect="non-scaling-stroke"  transform=" translate(-418.6, -310.78)" d="M 421.92757 300.15083 C 427.7158952547041 303.6290006132131 429.58864561321315 311.1409797452959 426.110475 316.929305 C 422.63230438678687 322.7176302547041 415.1203252547041 324.59038061321314 409.332 321.11221 C 415.18589548954503 322.41438324175334 421.1200737247912 319.2783390512389 423.3421668336877 313.7082358412931 C 425.5642599425842 308.1381326313473 423.41816862015685 301.778609337237 418.2754 298.69386000000003 C 419.5634188400365 298.9793086765991 420.79675275319033 299.4713258914187 421.92757 300.15083 Z" stroke-linecap="round" />
</g>
<g transform="matrix(1 0 0 1 366.42 424.3)"  >
<path style="stroke: none; stroke-width: 1; stroke-dasharray: none; stroke-linecap: butt; stroke-dashoffset: 0; stroke-linejoin: miter; stroke-miterlimit: 4; fill: rgb(35,31,32); fill-rule: nonzero; opacity: 0.2;" vector-effect="non-scaling-stroke"  transform=" translate(-426.43, -334.3)" d="M 451.7459 316.89434 C 447.43114 335.78634 414.822 356.80572 405.51626 392.24303 C 403.65753481325424 390.4868265189305 401.93124604422457 388.595554394225 400.35152 386.58468999999997 C 410.80852 353.27462999999995 441.388 333.03425999999996 445.55688 314.78123999999997 C 449.28803999999997 298.44442 438.80706 282.91853999999995 423.76788 276.35988999999995 C 441.97282 280.93625 455.971 298.39514 451.7459 316.89434 Z" stroke-linecap="round" />
</g>
<g transform="matrix(1 0 0 1 645.86 402)"  >
<path style="stroke: none; stroke-width: 1; stroke-dasharray: none; stroke-linecap: butt; stroke-dashoffset: 0; stroke-linejoin: miter; stroke-miterlimit: 4; fill: rgb(0,0,0); fill-rule: nonzero; opacity: 1;" vector-effect="non-scaling-stroke"  transform=" translate(-711.67, -309.11)" d="M 723.12108 268.05031 C 716.0018686517323 265.224338386385 708.0516286112896 265.3422081036282 701.0193232084969 268.37798914054673 C 693.9870178057041 271.41377017746527 688.4486973469586 277.118786958084 685.62273 284.238 C 679.7379500000001 299.063 678.76273 334.46613 689.7139500000001 352.20979 C 703.7948200000001 327.75043 732.2824300000001 318.71885 739.3087400000001 305.54869 C 746.8166 291.47589 737.94606 273.9351 723.12108 268.05031 Z" stroke-linecap="round" />
</g>
<g transform="matrix(1 0 0 1 648.35 384.47)" id="f50692ea-d13f-4759-b5e2-05248e17533e"  >
<circle style="stroke: none; stroke-width: 1; stroke-dasharray: none; stroke-linecap: butt; stroke-dashoffset: 0; stroke-linejoin: miter; stroke-miterlimit: 4; fill: rgb(255,255,255); fill-rule: nonzero; opacity: 1;" vector-effect="non-scaling-stroke"  cx="0" cy="0" r="9.41888" />
</g>
<g transform="matrix(1 0 0 1 622.91 448.05)" id="aec6a1c4-a00c-42b6-a49d-0158b63ca54a"  >
<circle style="stroke: none; stroke-width: 1; stroke-dasharray: none; stroke-linecap: butt; stroke-dashoffset: 0; stroke-linejoin: miter; stroke-miterlimit: 4; fill: rgb(0,0,0); fill-rule: nonzero; opacity: 1;" vector-effect="non-scaling-stroke"  cx="0" cy="0" r="6.16917" />
</g>
<g transform="matrix(0.78 0 0 0.78 454.14 540)"  >
<path style="stroke: none; stroke-width: 1; stroke-dasharray: none; stroke-linecap: butt; stroke-dashoffset: 0; stroke-linejoin: miter; stroke-miterlimit: 4; fill: rgb(0,0,0); fill-rule: nonzero; opacity: 1;" vector-effect="non-scaling-stroke"  transform=" translate(-608.02, -434.22)" d="M 922.0884 560.36242 Q 902.72024 560.36242 879.63186 558.89855 C 800.0180899999999 553.84289 696.8940699999999 536.26574 589.25586 509.40637 C 481.61813 482.547 382.32565 449.61242 309.67037 416.672 C 274.2778 400.62513 247.11422 385.43567 228.93502 371.52454 C 209.68795 356.79754 201.26902 343.96054 203.9111 333.37171 C 209.0591 312.7428 254.6421 308.22962 291.9751 308.0763 L 291.9878 311.0763 C 240.71973 311.28675 210.47413 319.46302000000003 206.82227 334.0983 C 202.17042 352.73843999999997 240.10889 381.83902 310.90918 413.93961 C 383.40479 446.80774 482.51464999999996 479.67884000000004 589.9824 506.49622 C 697.44968 533.31263 800.3837599999999 550.8595 879.82224 555.90442 C 957.40085 560.8321599999999 1004.5654 552.96692 1009.21677 534.3263 C 1013.07859 518.8497299999999 987.6186299999999 496.05090999999993 937.52732 470.1280499999999 L 938.9062200000001 467.4639899999999 C 975.3032200000001 486.2999299999999 1017.5517300000001 513.3155499999999 1012.1279000000001 535.0528599999999 C 1009.48539 545.6417299999999 996.0225 553.0176999999999 972.11283 556.9757099999999 C 958.48342 559.23156 941.7427 560.36242 922.0884 560.36242 Z" stroke-linecap="round" />
</g>
</svg>