<svg xmlns="http://www.w3.org/2000/svg" xmlns:xlink="http://www.w3.org/1999/xlink" version="1.1" width="1080" height="1080" viewBox="0 0 1080 1080" xml:space="preserve">
<desc fill="#ebeff3">Created with Fabric.js 5.2.4</desc>
<defs fill="#ebeff3">
</defs>
<g transform="matrix(1 0 0 1 540 540)" id="fe5c7e57-4d6b-43f2-9840-060ad1778ea3">
</g>
<g transform="matrix(1 0 0 1 540 540)" id="d87cb9c0-e7c5-41e7-92bf-5eaef021de39">
<rect style="stroke: none; stroke-width: 1; stroke-dasharray: none; stroke-linecap: butt; stroke-dashoffset: 0; stroke-linejoin: miter; stroke-miterlimit: 4; fill:#edf1f6; fill-rule: nonzero; opacity: 1; visibility: hidden;" vector-effect="non-scaling-stroke" x="-540" y="-540" rx="0" ry="0" width="1080" height="1080"/>
</g>
<g transform="matrix(1 0 0 1 446.59 539.86)">
<path style="stroke: none; stroke-width: 1; stroke-dasharray: none; stroke-linecap: butt; stroke-dashoffset: 0; stroke-linejoin: miter; stroke-miterlimit: 4; fill:#f1f5f8; fill-rule: nonzero; opacity: 1;" vector-effect="non-scaling-stroke" transform=" translate(-506.59, -360.1)" d="M 703.48622 469.32728 L 703.48622 250.8827 C 703.4664906916232 236.93889728765708 692.1677227123429 225.64012930837683 678.22392 225.6204 L 334.95386 225.6204 C 321.0100595674869 225.64013480137658 309.7112948013766 236.93889956748686 309.69156000000004 250.8827 L 309.69156000000004 469.32728 C 309.7112948013766 483.27108043251314 321.0100595674869 494.5698451986234 334.95386 494.58957999999996 L 678.22392 494.58957999999996 C 692.1677227123429 494.5698506916231 703.4664906916231 483.2710827123429 703.48622 469.32728 Z M 334.95386 491.61754 C 322.6494957160467 491.60256934377975 312.6785706562203 481.63164428395334 312.66360000000003 469.32728000000003 L 312.66360000000003 250.8827 C 312.6785706447833 238.5783340917277 322.6494940984452 228.60740616484594 334.95386 228.59243 L 678.22392 228.59243 C 690.5282898067968 228.60740065623594 700.499219343764 238.57833019320327 700.51419 250.8827 L 700.51419 469.32728 C 700.499213835154 481.6316459015548 690.5282859082723 491.60256935521664 678.22392 491.61753999999996 Z" stroke-linecap="round"/>
</g>
<g transform="matrix(1 0 0 1 446.59 443.19)">
<path style="stroke: none; stroke-width: 1; stroke-dasharray: none; stroke-linecap: butt; stroke-dashoffset: 0; stroke-linejoin: miter; stroke-miterlimit: 4; fill:#f1f5f8; fill-rule: nonzero; opacity: 1;" vector-effect="non-scaling-stroke" transform=" translate(-506.59, -263.44)" d="M 700.51419 264.92368 L 312.6636 264.92368 C 312.1327032923054 264.92368006163656 311.6421344778473 264.6404500751794 311.3766861062071 264.18068004980313 C 311.1112377345668 263.72091002442687 311.1112377345668 263.15444997557313 311.3766861062071 262.69467995019687 C 311.6421344778473 262.2349099248206 312.1327032923054 261.95167993836344 312.6636 261.95168 L 700.51419 261.95168 C 701.3348850708741 261.95168009528186 702.0001898274769 262.61698492912586 702.0001898274769 263.43768 C 702.0001898274769 264.25837507087414 701.3348850708741 264.92367990471814 700.51419 264.92368 Z" stroke-linecap="round"/>
</g>
<g transform="matrix(1 0 0 1 277.93 426.18)">
<circle style="stroke: none; stroke-width: 1; stroke-dasharray: none; stroke-linecap: butt; stroke-dashoffset: 0; stroke-linejoin: miter; stroke-miterlimit: 4; fill:#ebebec; fill-rule: nonzero; opacity: 1;" vector-effect="non-scaling-stroke" cx="0" cy="0" r="7.43009"/>
</g>
<g transform="matrix(1 0 0 1 303.19 426.18)">
<circle style="stroke: none; stroke-width: 1; stroke-dasharray: none; stroke-linecap: butt; stroke-dashoffset: 0; stroke-linejoin: miter; stroke-miterlimit: 4; fill:#ebebec; fill-rule: nonzero; opacity: 1;" vector-effect="non-scaling-stroke" cx="0" cy="0" r="7.43009"/>
</g>
<g transform="matrix(1 0 0 1 328.45 426.18)">
<circle style="stroke: none; stroke-width: 1; stroke-dasharray: none; stroke-linecap: butt; stroke-dashoffset: 0; stroke-linejoin: miter; stroke-miterlimit: 4; fill:#ebebec; fill-rule: nonzero; opacity: 1;" vector-effect="non-scaling-stroke" cx="0" cy="0" r="7.43009"/>
</g>
<g transform="matrix(1 0 0 1 377.82 592.1)">
<path style="stroke: none; stroke-width: 1; stroke-dasharray: none; stroke-linecap: butt; stroke-dashoffset: 0; stroke-linejoin: miter; stroke-miterlimit: 4; fill:#ebebec; fill-rule: nonzero; opacity: 1;" vector-effect="non-scaling-stroke" transform=" translate(-437.82, -412.34)" d="M 443.97867 424.85206 C 443.71343236680343 424.8521289886937 443.45903836816234 424.7467943026444 443.271487032759 424.559242967241 C 443.0839356973556 424.3716916318377 442.9786010113063 424.1172976331966 442.97867 423.85206 C 442.97867 413.42530999999997 438.40787 407.60988 431.03336 401.60499 C 430.75521267904276 401.3797793125445 430.61863933924315 401.0230846505541 430.6752505583886 400.6696996540323 C 430.73186177753405 400.3163146575105 430.9730240917983 400.0201321171487 431.30760312313964 399.8930783581072 C 431.64218215448096 399.76602459906564 432.0191531059121 399.82747588720173 432.29606 400.05421 C 440.12613 406.42921 444.97867 412.63429 444.97867 423.85206 C 444.9787416434001 424.11729844655895 444.87340780986034 424.3716939877903 444.68585589882537 424.55924589882534 C 444.49830398779034 424.7467978098603 444.243908446559 424.85213164340007 443.97867 424.85206 Z" stroke-linecap="round"/>
</g>
<g transform="matrix(1 0 0 1 304.48 592.1)">
<path style="stroke: none; stroke-width: 1; stroke-dasharray: none; stroke-linecap: butt; stroke-dashoffset: 0; stroke-linejoin: miter; stroke-miterlimit: 4; fill:#ebebec; fill-rule: nonzero; opacity: 1;" vector-effect="non-scaling-stroke" transform=" translate(-364.47, -412.34)" d="M 358.31656 424.85206 C 358.0513223668034 424.8521289886937 357.7969283681623 424.7467943026444 357.60937703275897 424.559242967241 C 357.4218256973556 424.3716916318377 357.31649101130625 424.1172976331966 357.31656 423.85206 C 357.31656 412.63429 362.16909999999996 406.42921 369.99917999999997 400.05421 C 370.2760868940879 399.82747588720173 370.653057845519 399.76602459906564 370.98763687686034 399.8930783581072 C 371.32221590820166 400.0201321171487 371.56337822246593 400.3163146575105 371.6199894416114 400.6696996540323 C 371.67660066075683 401.0230846505541 371.5400273209572 401.3797793125445 371.26187999999996 401.60499 C 363.88735999999994 407.60988 359.31656 413.42627999999996 359.31656 423.85206 C 359.31663164340006 424.11729844655895 359.2112978098603 424.3716939877903 359.0237458988253 424.55924589882534 C 358.8361939877903 424.7467978098603 358.58179844655893 424.85213164340007 358.31656 424.85206 Z" stroke-linecap="round"/>
</g>
<g transform="matrix(1 0 0 1 379.69 522.23)">
<path style="stroke: none; stroke-width: 1; stroke-dasharray: none; stroke-linecap: butt; stroke-dashoffset: 0; stroke-linejoin: miter; stroke-miterlimit: 4; fill:#ebebec; fill-rule: nonzero; opacity: 1;" vector-effect="non-scaling-stroke" transform=" translate(-439.7, -342.47)" d="M 435.41324 356.32179 C 434.99008866371724 356.32193700941383 434.6126505776497 356.0557313425736 434.4707751217465 355.6570730552875 C 434.3288996658433 355.25841476800144 434.4533026400222 354.8136127155245 434.78141 354.5464 C 442.36197 348.37501000000003 442.97866999999997 339.60792 442.97866999999997 329.62306 C 442.97866999999997 329.0707752501692 443.4263852501692 328.62306 443.97866999999997 328.62306 C 444.53095474983076 328.62306 444.97866999999997 329.0707752501692 444.97866999999997 329.62306 C 444.97866999999997 340.12794 444.30630999999994 349.37062000000003 436.04409999999996 356.09718 C 435.8661296348826 356.24277689701916 435.64317862966743 356.32215588012383 435.41324 356.32179 Z" stroke-linecap="round"/>
</g>
<g transform="matrix(1 0 0 1 302.6 521.96)">
<path style="stroke: none; stroke-width: 1; stroke-dasharray: none; stroke-linecap: butt; stroke-dashoffset: 0; stroke-linejoin: miter; stroke-miterlimit: 4; fill:#ebebec; fill-rule: nonzero; opacity: 1;" vector-effect="non-scaling-stroke" transform=" translate(-362.6, -342.2)" d="M 366.88248 355.78663 C 366.65254165502887 355.7869942238678 366.4295911911758 355.7076154335086 366.25162 355.56202 C 357.98893 348.83497 357.31656 339.83497 357.31656 329.62302 C 357.31656 329.0707352501692 357.7642752501692 328.62302 358.31656 328.62302 C 358.86884474983077 328.62302 359.31656 329.0707352501692 359.31656 329.62302 C 359.31656 339.65963999999997 359.92008 347.82859 367.51432 354.0112 C 367.84242878535883 354.2784138733169 367.9668312710153 354.723218460757 367.82495320636605 355.1218777688059 C 367.6830751417168 355.5205370768548 367.30563317114263 355.7867412434157 366.88248 355.78659 Z" stroke-linecap="round"/>
</g>
<g transform="matrix(1 0 0 1 386.12 556.53)">
<path style="stroke: none; stroke-width: 1; stroke-dasharray: none; stroke-linecap: butt; stroke-dashoffset: 0; stroke-linejoin: miter; stroke-miterlimit: 4; fill:#ebebec; fill-rule: nonzero; opacity: 1;" vector-effect="non-scaling-stroke" transform=" translate(-446.12, -376.77)" d="M 456.82828 377.77247 L 435.41276 377.77247 C 434.8604752501692 377.77247 434.41276 377.3247547498308 434.41276 376.77247 C 434.41276 376.2201852501692 434.8604752501692 375.77247 435.41276 375.77247 L 456.82828 375.77247 C 457.3805647498308 375.77247 457.82828 376.2201852501692 457.82828 376.77247 C 457.82828 377.3247547498308 457.3805647498308 377.77247 456.82828 377.77247 Z" stroke-linecap="round"/>
</g>
<g transform="matrix(1 0 0 1 296.18 556.53)">
<path style="stroke: none; stroke-width: 1; stroke-dasharray: none; stroke-linecap: butt; stroke-dashoffset: 0; stroke-linejoin: miter; stroke-miterlimit: 4; fill:#ebebec; fill-rule: nonzero; opacity: 1;" vector-effect="non-scaling-stroke" transform=" translate(-356.18, -376.77)" d="M 366.883 377.77247 L 345.46744 377.77247 C 344.9151552501692 377.77247 344.46744 377.3247547498308 344.46744 376.77247 C 344.46744 376.2201852501692 344.9151552501692 375.77247 345.46744 375.77247 L 366.883 375.77247 C 367.43528474983077 375.77247 367.883 376.2201852501692 367.883 376.77247 C 367.883 377.3247547498308 367.43528474983077 377.77247 366.883 377.77247 Z" stroke-linecap="round"/>
</g>
<g transform="matrix(1 0 0 1 341.15 565.06)">
<path style="stroke: none; stroke-width: 1; stroke-dasharray: none; stroke-linecap: butt; stroke-dashoffset: 0; stroke-linejoin: miter; stroke-miterlimit: 4; fill:#ebebec; fill-rule: nonzero; opacity: 1;" vector-effect="non-scaling-stroke" transform=" translate(-401.15, -385.3)" d="M 401.14762 420.56886 C 400.8823823668034 420.5689289886937 400.62798836816233 420.46359430264437 400.440437032759 420.276042967241 C 400.2528856973556 420.08849163183766 400.1475510113063 419.83409763319656 400.14762 419.56886 L 400.14762 351.03908 C 400.14762 350.4867952501692 400.5953352501692 350.03908 401.14762 350.03908 C 401.6999047498308 350.03908 402.14762 350.4867952501692 402.14762 351.03908 L 402.14762 419.56886000000003 C 402.14768898869374 419.8340976331966 402.0423543026444 420.08849163183766 401.854802967241 420.27604296724104 C 401.66725163183764 420.46359430264437 401.4128576331966 420.5689289886937 401.14762 420.56886 Z" stroke-linecap="round"/>
</g>
<g transform="matrix(1 0 0 1 341.14 556.49)">
<path style="stroke: none; stroke-width: 1; stroke-dasharray: none; stroke-linecap: butt; stroke-dashoffset: 0; stroke-linejoin: miter; stroke-miterlimit: 4; fill:#ebebec; fill-rule: nonzero; opacity: 1;" vector-effect="non-scaling-stroke" transform=" translate(-401.15, -376.73)" d="M 401.14762 420.56886 C 381.680580345966 420.54648597240987 365.90508697540946 404.77075998183494 365.883 385.30372 L 365.883 359.58644 C 365.883 343.11818 379.3957 332.88770999999997 401.14765 332.88770999999997 C 423.88886 332.88770999999997 436.41279 342.36963999999995 436.41279 359.58644 L 436.41279 385.30372 C 436.3906419474135 404.77094932876264 420.61484934759693 420.5467285081483 401.14762 420.56886 Z M 401.14762 334.88770999999997 C 385.06656000000004 334.88770999999997 367.88297 341.37598999999994 367.88297 359.58644 L 367.88297 385.30372 C 367.87645157003334 397.19246647344494 374.2152787921501 408.1809111226171 384.51015022788187 414.1271668622851 C 394.80502166361356 420.07342260195304 407.4907083363865 420.07342260195304 417.7855797721182 414.1271668622851 C 428.0804512078499 408.1809111226171 434.41927842996665 397.19246647344494 434.41276 385.30372 L 434.41276 359.58644 C 434.41276 338.09669 413.571 334.88771 401.14762 334.88771 Z" stroke-linecap="round"/>
</g>
<g transform="matrix(1 0 0 1 341.14 505.03)">
<path style="stroke: none; stroke-width: 1; stroke-dasharray: none; stroke-linecap: butt; stroke-dashoffset: 0; stroke-linejoin: miter; stroke-miterlimit: 4; fill:#ebebec; fill-rule: nonzero; opacity: 1;" vector-effect="non-scaling-stroke" transform=" translate(-401.15, -325.28)" d="M 380.651 339.06154 C 380.24153217024207 339.0615713030858 379.87339971134173 338.8120201251514 379.72180000000003 338.43165 C 379.14426077758145 336.98604994498567 378.8103090393262 335.45472369047945 378.73352000000006 333.89992 C 378.76984481180943 321.5596791711766 388.7488818386173 311.55667154349857 401.089 311.49074 L 401.20375 311.49074 C 413.5271143121798 311.549509982754 423.50300962699305 321.5243122018052 423.56313 333.84767 C 423.51136366621466 335.29412231326955 423.2031945713193 336.7198953295071 422.65297 338.05861 C 422.4403362770527 338.56531278491667 421.85868751714594 338.80551160715754 421.350485431122 338.5964866035391 C 420.84228334509817 338.3874615999207 420.5979542865207 337.80753568634066 420.80336 337.29786 C 421.26003521069424 336.1892055964825 421.51756110410895 335.0086839358558 421.5641 333.81056 C 421.49064210008925 322.6020552351438 412.40994493220876 313.5405203508847 401.20131 313.49074 L 401.09144999999995 313.49074 C 389.86953762673886 313.54657689385715 380.78656757862257 322.6306310426296 380.73206999999996 333.85255 C 380.8029817251476 335.16952594185176 381.08916130357164 336.4659903377081 381.57923999999997 337.69044 C 381.70170097367884 337.9984616892508 381.66377396660374 338.3471275371421 381.4779491276281 338.6216146595048 C 381.2921242886525 338.8961017818675 380.9824917804141 339.06082591851253 380.65101999999996 339.06154000000004 Z" stroke-linecap="round"/>
</g>
<g transform="matrix(1 0 0 1 436.71 506.38)">
<path style="stroke: none; stroke-width: 1; stroke-dasharray: none; stroke-linecap: butt; stroke-dashoffset: 0; stroke-linejoin: miter; stroke-miterlimit: 4; fill:#edeeee; fill-rule: nonzero; opacity: 1;" vector-effect="non-scaling-stroke" transform=" translate(-496.71, -326.62)" d="M 502.71045 333.62308 L 490.71045 333.62308 C 486.84445675118445 333.62308 483.71045 330.48907324881554 483.71045 326.62308 C 483.71045 322.7570867511845 486.84445675118445 319.62308 490.71045 319.62308 L 502.71045 319.62308 C 506.5764432488155 319.62308 509.71045 322.7570867511845 509.71045 326.62308 C 509.71045 330.48907324881554 506.57644324881556 333.62308 502.71045 333.62308 Z" stroke-linecap="round"/>
</g>
<g transform="matrix(1 0 0 1 518.71 535.88)">
<path style="stroke: none; stroke-width: 1; stroke-dasharray: none; stroke-linecap: butt; stroke-dashoffset: 0; stroke-linejoin: miter; stroke-miterlimit: 4; fill:#edeeee; fill-rule: nonzero; opacity: 1;" vector-effect="non-scaling-stroke" transform=" translate(-578.71, -356.12)" d="M 584.71045 363.12308 L 572.71045 363.12308 C 568.8444567511845 363.12308 565.71045 359.98907324881554 565.71045 356.12308 C 565.71045 352.2570867511845 568.8444567511845 349.12308 572.71045 349.12308 L 584.71045 349.12308 C 588.5764432488156 349.12308 591.71045 352.2570867511845 591.71045 356.12308 C 591.71045 359.98907324881554 588.5764432488156 363.12308 584.71045 363.12308 Z" stroke-linecap="round"/>
</g>
<g transform="matrix(1 0 0 1 556.71 535.88)">
<path style="stroke: none; stroke-width: 1; stroke-dasharray: none; stroke-linecap: butt; stroke-dashoffset: 0; stroke-linejoin: miter; stroke-miterlimit: 4; fill:#edeeee; fill-rule: nonzero; opacity: 1;" vector-effect="non-scaling-stroke" transform=" translate(-616.71, -356.12)" d="M 622.71045 363.12308 L 610.71045 363.12308 C 606.8444567511845 363.12308 603.71045 359.98907324881554 603.71045 356.12308 C 603.71045 352.2570867511845 606.8444567511845 349.12308 610.71045 349.12308 L 622.71045 349.12308 C 626.5764432488156 349.12308 629.71045 352.2570867511845 629.71045 356.12308 C 629.71045 359.98907324881554 626.5764432488156 363.12308 622.71045 363.12308 Z" stroke-linecap="round"/>
</g>
<g transform="matrix(1 0 0 1 594.71 535.88)">
<path style="stroke: none; stroke-width: 1; stroke-dasharray: none; stroke-linecap: butt; stroke-dashoffset: 0; stroke-linejoin: miter; stroke-miterlimit: 4; fill:#edeeee; fill-rule: nonzero; opacity: 1;" vector-effect="non-scaling-stroke" transform=" translate(-654.71, -356.12)" d="M 660.71045 363.12308 L 648.71045 363.12308 C 644.8444567511845 363.12308 641.71045 359.98907324881554 641.71045 356.12308 C 641.71045 352.2570867511845 644.8444567511845 349.12308 648.71045 349.12308 L 660.71045 349.12308 C 664.5764432488156 349.12308 667.71045 352.2570867511845 667.71045 356.12308 C 667.71045 359.98907324881554 664.5764432488156 363.12308 660.71045 363.12308 Z" stroke-linecap="round"/>
</g>
<g transform="matrix(1 0 0 1 497.71 506.88)">
<path style="stroke: none; stroke-width: 1; stroke-dasharray: none; stroke-linecap: butt; stroke-dashoffset: 0; stroke-linejoin: miter; stroke-miterlimit: 4; fill:#edeeee; fill-rule: nonzero; opacity: 1;" vector-effect="non-scaling-stroke" transform=" translate(-557.71, -327.12)" d="M 585.71045 334.12308 L 529.71045 334.12308 C 525.8444567511845 334.12308 522.71045 330.98907324881554 522.71045 327.12308 C 522.71045 323.2570867511845 525.8444567511845 320.12308 529.71045 320.12308 L 585.71045 320.12308 C 589.5764432488156 320.12308 592.71045 323.2570867511845 592.71045 327.12308 C 592.71045 330.98907324881554 589.5764432488156 334.12308 585.71045 334.12308 Z" stroke-linecap="round"/>
</g>
<g transform="matrix(1 0 0 1 458.71 534.88)">
<path style="stroke: none; stroke-width: 1; stroke-dasharray: none; stroke-linecap: butt; stroke-dashoffset: 0; stroke-linejoin: miter; stroke-miterlimit: 4; fill:#edeeee; fill-rule: nonzero; opacity: 1;" vector-effect="non-scaling-stroke" transform=" translate(-518.71, -355.12)" d="M 546.71045 362.12308 L 490.71045000000004 362.12308 C 486.8444567511845 362.12308 483.71045000000004 358.98907324881554 483.71045000000004 355.12308 C 483.71045000000004 351.2570867511845 486.8444567511845 348.12308 490.71045000000004 348.12308 L 546.71045 348.12308 C 550.5764432488156 348.12308 553.71045 351.2570867511845 553.71045 355.12308 C 553.71045 358.98907324881554 550.5764432488156 362.12308 546.71045 362.12308 Z" stroke-linecap="round"/>
</g>
<g transform="matrix(1 0 0 1 575.21 506.88)">
<path style="stroke: none; stroke-width: 1; stroke-dasharray: none; stroke-linecap: butt; stroke-dashoffset: 0; stroke-linejoin: miter; stroke-miterlimit: 4; fill:#edeeee; fill-rule: nonzero; opacity: 1;" vector-effect="non-scaling-stroke" transform=" translate(-635.21, -327.12)" d="M 656.71045 334.12308 L 613.71045 334.12308 C 609.8444567511845 334.12308 606.71045 330.98907324881554 606.71045 327.12308 C 606.71045 323.2570867511845 609.8444567511845 320.12308 613.71045 320.12308 L 656.71045 320.12308 C 660.5764432488156 320.12308 663.71045 323.2570867511845 663.71045 327.12308 C 663.71045 330.98907324881554 660.5764432488156 334.12308 656.71045 334.12308 Z" stroke-linecap="round"/>
</g>
<g transform="matrix(1 0 0 1 436.71 565.38)">
<path style="stroke: none; stroke-width: 1; stroke-dasharray: none; stroke-linecap: butt; stroke-dashoffset: 0; stroke-linejoin: miter; stroke-miterlimit: 4; fill:#edeeee; fill-rule: nonzero; opacity: 1;" vector-effect="non-scaling-stroke" transform=" translate(-496.71, -385.62)" d="M 502.71045 392.62308 L 490.71045 392.62308 C 486.84445675118445 392.62308 483.71045 389.48907324881554 483.71045 385.62308 C 483.71045 381.7570867511845 486.84445675118445 378.62308 490.71045 378.62308 L 502.71045 378.62308 C 506.5764432488155 378.62308 509.71045 381.7570867511845 509.71045 385.62308 C 509.71045 389.48907324881554 506.57644324881556 392.62308 502.71045 392.62308 Z" stroke-linecap="round"/>
</g>
<g transform="matrix(1 0 0 1 497.71 565.88)">
<path style="stroke: none; stroke-width: 1; stroke-dasharray: none; stroke-linecap: butt; stroke-dashoffset: 0; stroke-linejoin: miter; stroke-miterlimit: 4; fill:#edeeee; fill-rule: nonzero; opacity: 1;" vector-effect="non-scaling-stroke" transform=" translate(-557.71, -386.12)" d="M 585.71045 393.12308 L 529.71045 393.12308 C 525.8444567511845 393.12308 522.71045 389.98907324881554 522.71045 386.12308 C 522.71045 382.2570867511845 525.8444567511845 379.12308 529.71045 379.12308 L 585.71045 379.12308 C 589.5764432488156 379.12308 592.71045 382.2570867511845 592.71045 386.12308 C 592.71045 389.98907324881554 589.5764432488156 393.12308 585.71045 393.12308 Z" stroke-linecap="round"/>
</g>
<g transform="matrix(1 0 0 1 575.21 565.88)">
<path style="stroke: none; stroke-width: 1; stroke-dasharray: none; stroke-linecap: butt; stroke-dashoffset: 0; stroke-linejoin: miter; stroke-miterlimit: 4; fill:#edeeee; fill-rule: nonzero; opacity: 1;" vector-effect="non-scaling-stroke" transform=" translate(-635.21, -386.12)" d="M 656.71045 393.12308 L 613.71045 393.12308 C 609.8444567511845 393.12308 606.71045 389.98907324881554 606.71045 386.12308 C 606.71045 382.2570867511845 609.8444567511845 379.12308 613.71045 379.12308 L 656.71045 379.12308 C 660.5764432488156 379.12308 663.71045 382.2570867511845 663.71045 386.12308 C 663.71045 389.98907324881554 660.5764432488156 393.12308 656.71045 393.12308 Z" stroke-linecap="round"/>
</g>
<g transform="matrix(1 0 0 1 590.71 596.38)">
<path style="stroke: none; stroke-width: 1; stroke-dasharray: none; stroke-linecap: butt; stroke-dashoffset: 0; stroke-linejoin: miter; stroke-miterlimit: 4; fill:#edeeee; fill-rule: nonzero; opacity: 1;" vector-effect="non-scaling-stroke" transform=" translate(-650.71, -416.62)" d="M 637.71045 416.62308 C 637.7147816502257 412.75888240164215 640.8462524016421 409.6274116502258 644.71045 409.62308 L 656.71045 409.62308 C 660.5764432488156 409.62308 663.71045 412.7570867511845 663.71045 416.62308 C 663.71045 420.48907324881554 660.5764432488156 423.62308 656.71045 423.62308 L 644.71045 423.62308 C 640.8462501201865 423.61875384898104 637.714776151019 420.4872798798135 637.71045 416.62308 Z" stroke-linecap="round"/>
</g>
<g transform="matrix(1 0 0 1 529.71 596.88)">
<path style="stroke: none; stroke-width: 1; stroke-dasharray: none; stroke-linecap: butt; stroke-dashoffset: 0; stroke-linejoin: miter; stroke-miterlimit: 4; fill:#edeeee; fill-rule: nonzero; opacity: 1;" vector-effect="non-scaling-stroke" transform=" translate(-589.71, -417.12)" d="M 554.71045 417.12308 C 554.7147816502257 413.25888240164215 557.8462524016421 410.1274116502258 561.71045 410.12308 L 617.71045 410.12308 C 621.5764432488156 410.12308 624.71045 413.2570867511845 624.71045 417.12308 C 624.71045 420.98907324881554 621.5764432488156 424.12308 617.71045 424.12308 L 561.71045 424.12308 C 557.8462501201865 424.11875384898104 554.714776151019 420.9872798798135 554.71045 417.12308 Z" stroke-linecap="round"/>
</g>
<g transform="matrix(1 0 0 1 452.21 596.88)">
<path style="stroke: none; stroke-width: 1; stroke-dasharray: none; stroke-linecap: butt; stroke-dashoffset: 0; stroke-linejoin: miter; stroke-miterlimit: 4; fill:#edeeee; fill-rule: nonzero; opacity: 1;" vector-effect="non-scaling-stroke" transform=" translate(-512.21, -417.12)" d="M 483.71045 417.12308 C 483.71478165022575 413.25888240164215 486.8462524016421 410.1274116502258 490.71045 410.12308 L 533.71045 410.12308 C 537.5764432488156 410.12308 540.71045 413.2570867511845 540.71045 417.12308 C 540.71045 420.98907324881554 537.5764432488156 424.12308 533.71045 424.12308 L 490.71045000000004 424.12308 C 486.8462501201865 424.1187538489811 483.71477615101895 420.98727987981357 483.71045 417.12308 Z" stroke-linecap="round"/>
</g>
</svg>