<svg xmlns="http://www.w3.org/2000/svg" xmlns:xlink="http://www.w3.org/1999/xlink" version="1.1" width="1080" height="1080" viewBox="0 0 1080 1080" xml:space="preserve">
<desc fill="#000000">Created with Fabric.js 5.2.4</desc>
<defs fill="#000000">
</defs>
<g transform="matrix(1 0 0 1 540 540)" id="8ea6eced-b922-443c-904c-5778888a6fcd">
<rect style="stroke: none; stroke-width: 1; stroke-dasharray: none; stroke-linecap: butt; stroke-dashoffset: 0; stroke-linejoin: miter; stroke-miterlimit: 4; fill:#757575; fill-rule: nonzero; opacity: 1; visibility: hidden;" vector-effect="non-scaling-stroke" x="-540" y="-540" rx="0" ry="0" width="1080" height="1080"/>
</g>
<g transform="matrix(1 0 0 1 540 540)" id="50e6319e-c457-4cb3-94a3-29289fbf6398">
</g>
<g transform="matrix(1 0 0 1 434.13 554.54)">
<path style="stroke: none; stroke-width: 1; stroke-dasharray: none; stroke-linecap: butt; stroke-dashoffset: 0; stroke-linejoin: miter; stroke-miterlimit: 4; fill:#000000; fill-rule: nonzero; opacity: 1;" vector-effect="non-scaling-stroke" transform=" translate(-191.59, -277.13)" d="M 196.15526 154.13037 C 264.08628 154.13037 319.15528 209.19934 319.15528 277.13036999999997 C 319.15528 345.06139999999994 264.08628 400.13036999999997 196.15526 400.13036999999997 C 128.22424 400.13036999999997 34.210319999999996 332.77907 73.15526 277.13036999999997 C 112.1002 221.48166999999995 128.22424 154.13036999999997 196.15526 154.13036999999997 Z" stroke-linecap="round"/>
</g>
<g transform="matrix(1 0 0 1 603.33 471.39)">
<path style="stroke: none; stroke-width: 1; stroke-dasharray: none; stroke-linecap: butt; stroke-dashoffset: 0; stroke-linejoin: miter; stroke-miterlimit: 4; fill:#000000; fill-rule: nonzero; opacity: 1;" vector-effect="non-scaling-stroke" transform=" translate(-360.78, -193.98)" d="M 360.7818 159.98167 C 359.67877 159.98167 358.7818 160.87864000000002 358.7818 161.98167 L 358.7818 225.98167 C 358.7818 227.0847 359.67877 227.98167 360.7818 227.98167 C 361.88482999999997 227.98167 362.7818 227.0847 362.7818 225.98167 L 362.7818 161.98167 C 362.7818 160.87864000000002 361.88482999999997 159.98167 360.7818 159.98167 Z" stroke-linecap="round"/>
</g>
<g transform="matrix(1 0 0 1 267.33 399.39)">
<path style="stroke: none; stroke-width: 1; stroke-dasharray: none; stroke-linecap: butt; stroke-dashoffset: 0; stroke-linejoin: miter; stroke-miterlimit: 4; fill:#000000; fill-rule: nonzero; opacity: 1;" vector-effect="non-scaling-stroke" transform=" translate(-24.78, -121.98)" d="M 24.7818 111.98166 C 23.67877 111.98166 22.7818 112.87863 22.7818 113.98166 L 22.7818 129.98165 C 22.7818 131.08468 23.67877 131.98165 24.7818 131.98165 C 25.88483 131.98165 26.7818 131.08468 26.7818 129.98165 L 26.7818 113.98165 C 26.7818 112.87862 25.88483 111.98165 24.7818 111.98166 Z" stroke-linecap="round"/>
</g>
<g transform="matrix(1 0 0 1 267.33 454.89)">
<path style="stroke: none; stroke-width: 1; stroke-dasharray: none; stroke-linecap: butt; stroke-dashoffset: 0; stroke-linejoin: miter; stroke-miterlimit: 4; fill:#000000; fill-rule: nonzero; opacity: 1;" vector-effect="non-scaling-stroke" transform=" translate(-24.78, -177.48)" d="M 24.7818 159.98167 C 23.67877 159.98167 22.7818 160.87864000000002 22.7818 161.98167 L 22.7818 192.98167 C 22.7818 194.0847 23.67877 194.98167 24.7818 194.98167 C 25.88483 194.98167 26.7818 194.0847 26.7818 192.98167 L 26.7818 161.98167 C 26.7818 160.87864000000002 25.88483 159.98167 24.7818 159.98167 Z" stroke-linecap="round"/>
</g>
<g transform="matrix(1 0 0 1 267.33 498.89)">
<path style="stroke: none; stroke-width: 1; stroke-dasharray: none; stroke-linecap: butt; stroke-dashoffset: 0; stroke-linejoin: miter; stroke-miterlimit: 4; fill:#000000; fill-rule: nonzero; opacity: 1;" vector-effect="non-scaling-stroke" transform=" translate(-24.78, -221.48)" d="M 24.7818 203.98167 C 23.67877 203.98167 22.7818 204.87864000000002 22.7818 205.98167 L 22.7818 236.98167 C 22.7818 238.0847 23.67877 238.98167 24.7818 238.98167 C 25.88483 238.98167 26.7818 238.0847 26.7818 236.98167 L 26.7818 205.98167 C 26.7818 204.87864000000002 25.88483 203.98167 24.7818 203.98167 Z" stroke-linecap="round"/>
</g>
<g transform="matrix(1 0 0 1 446.7 343.89)">
<path style="stroke: none; stroke-width: 1; stroke-dasharray: none; stroke-linecap: butt; stroke-dashoffset: 0; stroke-linejoin: miter; stroke-miterlimit: 4; fill:#000000; fill-rule: nonzero; opacity: 1;" vector-effect="non-scaling-stroke" transform=" translate(-204.16, -66.48)" d="M 204.15526 48.98167 C 203.05223 48.98167 202.15526 49.878640000000004 202.15526 50.98167 L 202.15526 81.98167000000001 C 202.15526 83.08470000000001 203.05223 83.98167000000001 204.15526 83.98167000000001 C 205.25829 83.98167000000001 206.15526 83.08470000000001 206.15526 81.98167000000001 L 206.15526 50.98167000000001 C 206.15526 49.87864000000001 205.25829 48.98167000000001 204.15526 48.98167000000001 Z" stroke-linecap="round"/>
</g>
<g transform="matrix(1 0 0 1 356.76 516.39)">
<path style="stroke: none; stroke-width: 1; stroke-dasharray: none; stroke-linecap: butt; stroke-dashoffset: 0; stroke-linejoin: miter; stroke-miterlimit: 4; fill:#ffffff; fill-rule: nonzero; opacity: 1;" vector-effect="non-scaling-stroke" transform=" translate(-114.22, -238.98)" d="M 142.37598 268.83935 L 73.15526 268.83935 L 73.15526 266.83935 L 142.37596 266.83935 C 148.38914 266.83935 153.28123 261.94677 153.28123 255.93310000000002 L 153.28123 209.13037000000003 L 155.28123 209.13037000000003 L 155.28123 255.93310000000002 C 155.28123 263.04931000000005 149.49217 268.83935 142.37596 268.83935 L 142.37598 268.83935 Z" stroke-linecap="round"/>
</g>
<g transform="matrix(1 0 0 1 438.28 648.7)">
<rect style="stroke: none; stroke-width: 1; stroke-dasharray: none; stroke-linecap: butt; stroke-dashoffset: 0; stroke-linejoin: miter; stroke-miterlimit: 4; fill:#ffffff; fill-rule: nonzero; opacity: 1;" vector-effect="non-scaling-stroke" x="-78.718025" y="-1" rx="0" ry="0" width="157.43605" height="2"/>
</g>
<g transform="matrix(1 0 0 1 574.84 483.11)">
<path style="stroke: none; stroke-width: 1; stroke-dasharray: none; stroke-linecap: butt; stroke-dashoffset: 0; stroke-linejoin: miter; stroke-miterlimit: 4; fill:#e8dbdb; fill-rule: nonzero; opacity: 1;" vector-effect="non-scaling-stroke" transform=" translate(-332.3, -205.7)" d="M 374.34299 255.466 L 290.25118999999995 255.466 C 285.71309999999994 255.466 282.02120999999994 251.77411 282.02120999999994 247.23602 L 282.02120999999994 164.1701 C 282.02120999999994 159.63200999999998 285.71309999999994 155.94011999999998 290.25118999999995 155.94011999999998 L 374.34299 155.94011999999998 C 378.88108 155.94011999999998 382.57297 159.63200999999998 382.57297 164.1701 L 382.57297 247.23602 C 382.57297 251.77411 378.88108 255.466 374.34299 255.466 Z" stroke-linecap="round"/>
</g>
<g transform="matrix(1 0 0 1 574.84 483.11)">
<path style="stroke: none; stroke-width: 1; stroke-dasharray: none; stroke-linecap: butt; stroke-dashoffset: 0; stroke-linejoin: miter; stroke-miterlimit: 4; fill:#757575; fill-rule: nonzero; opacity: 1;" vector-effect="non-scaling-stroke" transform=" translate(-332.3, -205.7)" d="M 305.91171 158.39219 C 294.07159 158.39219 284.47329 167.99049 284.47329 179.83061 L 284.47329 245.4736 C 284.47329 249.63795000000002 287.84918000000005 253.01382 292.01351 253.01382 L 343.4334 253.01382 C 363.69524 253.01382 380.12072 236.58834000000002 380.12072 216.32649 L 380.12072 165.9324 C 380.12072 161.76805 376.74483 158.39218 372.58050000000003 158.39218 L 305.91171 158.39218 L 305.91171 158.3922 Z" stroke-linecap="round"/>
</g>
<g transform="matrix(1 0 0 1 574.75 458.37)">
<path style="stroke: none; stroke-width: 1; stroke-dasharray: none; stroke-linecap: butt; stroke-dashoffset: 0; stroke-linejoin: miter; stroke-miterlimit: 4; fill:#e8dbdb; fill-rule: nonzero; opacity: 1;" vector-effect="non-scaling-stroke" transform=" translate(-332.21, -180.97)" d="M 354.81924 182.53161 L 309.59862999999996 182.53161 C 308.73589999999996 182.53161 308.03392999999994 181.82961 308.03392999999994 180.9669 C 308.03392999999994 180.10419000000002 308.73592999999994 179.40251 309.59862999999996 179.40251 L 354.81924 179.40251 C 355.68197 179.40251 356.38363 180.10417 356.38363 180.9669 C 356.38363 181.82963 355.68197 182.53161 354.81924 182.53161 Z" stroke-linecap="round"/>
</g>
<g transform="matrix(1 0 0 1 574.75 491.74)">
<path style="stroke: none; stroke-width: 1; stroke-dasharray: none; stroke-linecap: butt; stroke-dashoffset: 0; stroke-linejoin: miter; stroke-miterlimit: 4; fill:#e8dbdb; fill-rule: nonzero; opacity: 1;" vector-effect="non-scaling-stroke" transform=" translate(-332.21, -214.33)" d="M 354.81924 215.89521 L 309.59862999999996 215.89521 C 308.73589999999996 215.89521 308.03392999999994 215.19321 308.03392999999994 214.3305 C 308.03392999999994 213.46779 308.73592999999994 212.76611 309.59862999999996 212.76611 L 354.81924 212.76611 C 355.68197 212.76611 356.38363 213.46777 356.38363 214.3305 C 356.38363 215.19323 355.68197 215.89521 354.81924 215.89521 Z" stroke-linecap="round"/>
</g>
<g transform="matrix(1 0 0 1 574.75 475.07)">
<path style="stroke: none; stroke-width: 1; stroke-dasharray: none; stroke-linecap: butt; stroke-dashoffset: 0; stroke-linejoin: miter; stroke-miterlimit: 4; fill:#e8dbdb; fill-rule: nonzero; opacity: 1;" vector-effect="non-scaling-stroke" transform=" translate(-332.21, -197.66)" d="M 373.1824 199.22434 L 291.2355 199.22434 C 290.37277 199.22434 289.6708 198.52234 289.6708 197.65963000000002 C 289.6708 196.79692000000003 290.3728 196.09524000000002 291.2355 196.09524000000002 L 373.18240000000003 196.09524000000002 C 374.04513000000003 196.09524000000002 374.74679000000003 196.79690000000002 374.74679000000003 197.65963000000002 C 374.74679000000003 198.52236000000002 374.04513000000003 199.22434 373.18240000000003 199.22434 Z" stroke-linecap="round"/>
</g>
<g transform="matrix(1 0 0 1 601.76 505.3)">
<path style="stroke: none; stroke-width: 1; stroke-dasharray: none; stroke-linecap: butt; stroke-dashoffset: 0; stroke-linejoin: miter; stroke-miterlimit: 4; fill:#e8dbdb; fill-rule: nonzero; opacity: 1;" vector-effect="non-scaling-stroke" transform=" translate(-359.22, -227.9)" d="M 374.01913 229.46084 L 344.41552 229.46084 C 343.55279 229.46084 342.85082 228.75884 342.85082 227.89613 C 342.85082 227.03342 343.55282 226.33174 344.41552 226.33174 L 374.01913 226.33174 C 374.88186 226.33174 375.58352 227.0334 375.58352 227.89613 C 375.58352 228.75886 374.88186 229.46084 374.01913 229.46084 Z" stroke-linecap="round"/>
</g>
<g transform="matrix(1 0 0 1 406.87 658.86)">
<path style="stroke: none; stroke-width: 1; stroke-dasharray: none; stroke-linecap: butt; stroke-dashoffset: 0; stroke-linejoin: miter; stroke-miterlimit: 4; fill:#e8dbdb; fill-rule: nonzero; opacity: 1;" vector-effect="non-scaling-stroke" transform=" translate(-164.32, -381.46)" d="M 197.71127 420.97035 L 130.93673 420.97035 C 127.33318000000001 420.97035 124.40157 418.03874 124.40157 414.43519 L 124.40157 348.47526 C 124.40157 344.87171 127.33318000000001 341.9401 130.93673 341.9401 L 197.7113 341.9401 C 201.31485 341.9401 204.24645999999998 344.87170999999995 204.24645999999998 348.47526 L 204.24645999999998 414.43519 C 204.24645999999998 418.03873999999996 201.31484999999998 420.97035 197.7113 420.97035 L 197.71128 420.97035 Z" stroke-linecap="round"/>
</g>
<g transform="matrix(1 0 0 1 406.87 658.86)">
<path style="stroke: none; stroke-width: 1; stroke-dasharray: none; stroke-linecap: butt; stroke-dashoffset: 0; stroke-linejoin: miter; stroke-miterlimit: 4; fill:#757575; fill-rule: nonzero; opacity: 1;" vector-effect="non-scaling-stroke" transform=" translate(-164.32, -381.46)" d="M 143.37224 343.88719 C 133.9704 343.88719 126.34869 351.50888999999995 126.34869 360.91074999999995 L 126.34869 413.03571999999997 C 126.34869 416.34250999999995 129.02936 419.02317999999997 132.33614 419.02317999999997 L 173.167 419.02317999999997 C 189.25628 419.02317999999997 202.29922 405.98024 202.29922 389.89097999999996 L 202.29922 349.87467999999996 C 202.29922 346.56789 199.61856 343.88721999999996 196.31176 343.88721999999996 L 143.37223 343.88721999999996 L 143.37225 343.88719 Z" stroke-linecap="round"/>
</g>
<g transform="matrix(1 0 0 1 406.8 639.22)">
<path style="stroke: none; stroke-width: 1; stroke-dasharray: none; stroke-linecap: butt; stroke-dashoffset: 0; stroke-linejoin: miter; stroke-miterlimit: 4; fill:#e8dbdb; fill-rule: nonzero; opacity: 1;" vector-effect="non-scaling-stroke" transform=" translate(-164.25, -361.81)" d="M 182.20811 363.05549 L 146.29991 363.05549 C 145.61485000000002 363.05549 145.05742 362.49806 145.05742 361.81300000000005 C 145.05742 361.1279400000001 145.61484000000002 360.57078000000007 146.29991 360.57078000000007 L 182.20811 360.57078000000007 C 182.89317 360.57078000000007 183.45034 361.1279400000001 183.45034 361.81300000000005 C 183.45034 362.49806 182.89317 363.05549 182.20811 363.05549 Z" stroke-linecap="round"/>
</g>
<g transform="matrix(1 0 0 1 406.8 665.71)">
<path style="stroke: none; stroke-width: 1; stroke-dasharray: none; stroke-linecap: butt; stroke-dashoffset: 0; stroke-linejoin: miter; stroke-miterlimit: 4; fill:#e8dbdb; fill-rule: nonzero; opacity: 1;" vector-effect="non-scaling-stroke" transform=" translate(-164.25, -388.31)" d="M 182.20811 389.54847 L 146.29991 389.54847 C 145.61485000000002 389.54847 145.05742 388.99104 145.05742 388.30598000000003 C 145.05742 387.62092000000007 145.61484000000002 387.06376000000006 146.29991 387.06376000000006 L 182.20811 387.06376000000006 C 182.89317 387.06376000000006 183.45034 387.62092000000007 183.45034 388.30598000000003 C 183.45034 388.99104 182.89317 389.54847 182.20811 389.54847 Z" stroke-linecap="round"/>
</g>
<g transform="matrix(1 0 0 1 406.8 652.48)">
<path style="stroke: none; stroke-width: 1; stroke-dasharray: none; stroke-linecap: butt; stroke-dashoffset: 0; stroke-linejoin: miter; stroke-miterlimit: 4; fill:#e8dbdb; fill-rule: nonzero; opacity: 1;" vector-effect="non-scaling-stroke" transform=" translate(-164.25, -375.07)" d="M 196.78969 376.31068 L 131.71834 376.31068 C 131.03328000000002 376.31068 130.47585 375.75325 130.47585 375.06819 C 130.47585 374.38313000000005 131.03327000000002 373.82597000000004 131.71834 373.82597000000004 L 196.78969 373.82597000000004 C 197.47475 373.82597000000004 198.03192 374.38313000000005 198.03192 375.06819 C 198.03192 375.75325 197.47475 376.31068 196.78969 376.31068 Z" stroke-linecap="round"/>
</g>
<g transform="matrix(1 0 0 1 428.25 676.49)">
<path style="stroke: none; stroke-width: 1; stroke-dasharray: none; stroke-linecap: butt; stroke-dashoffset: 0; stroke-linejoin: miter; stroke-miterlimit: 4; fill:#e8dbdb; fill-rule: nonzero; opacity: 1;" vector-effect="non-scaling-stroke" transform=" translate(-185.7, -399.08)" d="M 197.4541 400.32048 L 173.94685 400.32048 C 173.26179000000002 400.32048 172.70436 399.76304999999996 172.70436 399.07799 C 172.70436 398.39293000000004 173.26178000000002 397.83577 173.94685 397.83577 L 197.4541 397.83577 C 198.13916 397.83577 198.69633000000002 398.39293000000004 198.69633000000002 399.07799 C 198.69633000000002 399.76304999999996 198.13916 400.32048 197.4541 400.32048 Z" stroke-linecap="round"/>
</g>
<g transform="matrix(1 0 0 1 368.89 456.81)">
<path style="stroke: none; stroke-width: 1; stroke-dasharray: none; stroke-linecap: butt; stroke-dashoffset: 0; stroke-linejoin: miter; stroke-miterlimit: 4; fill:#e8dbdb; fill-rule: nonzero; opacity: 1;" vector-effect="non-scaling-stroke" transform=" translate(-126.35, -179.4)" d="M 151.04003 208.62567 L 101.65733 208.62567 C 98.99234 208.62567 96.82429 206.45762000000002 96.82429 203.79264 L 96.82429 155.01238 C 96.82429 152.3474 98.99234 150.17935 101.65732 150.17935 L 151.04003 150.17935 C 153.70501000000002 150.17935 155.87306 152.3474 155.87306 155.01238 L 155.87306 203.79264 C 155.87306 206.45762000000002 153.70501000000002 208.62567 151.04003 208.62567 L 151.04002 208.62567 Z" stroke-linecap="round"/>
</g>
<g transform="matrix(1 0 0 1 368.89 456.81)">
<path style="stroke: none; stroke-width: 1; stroke-dasharray: none; stroke-linecap: butt; stroke-dashoffset: 0; stroke-linejoin: miter; stroke-miterlimit: 4; fill:#757575; fill-rule: nonzero; opacity: 1;" vector-effect="non-scaling-stroke" transform=" translate(-126.35, -179.4)" d="M 110.85394 151.6193 C 103.90087 151.6193 98.26428 157.25588000000002 98.26428 164.20897000000002 L 98.26428 202.75767000000002 C 98.26428 205.20319 100.24675 207.18566 102.69226 207.18566 L 132.88847 207.18566 C 144.7872 207.18566 154.43302 197.53984000000003 154.43302 185.64112 L 154.43302 156.04732 C 154.43302 153.60180000000003 152.45055 151.61933000000002 150.00503 151.61933000000002 L 110.85393 151.61933000000002 L 110.85393 151.61931 Z" stroke-linecap="round"/>
</g>
<g transform="matrix(1 0 0 1 368.84 442.28)">
<path style="stroke: none; stroke-width: 1; stroke-dasharray: none; stroke-linecap: butt; stroke-dashoffset: 0; stroke-linejoin: miter; stroke-miterlimit: 4; fill:#e8dbdb; fill-rule: nonzero; opacity: 1;" vector-effect="non-scaling-stroke" transform=" translate(-126.3, -164.88)" d="M 139.57477 165.7951 L 113.01908 165.7951 C 112.51245 165.7951 112.1002 165.38285 112.1002 164.87622 C 112.1002 164.36959 112.51244 163.95755 113.01908 163.95755 L 139.57477 163.95755 C 140.0814 163.95755 140.49346 164.36959 140.49346 164.87622 C 140.49346 165.38285 140.0814 165.7951 139.57477 165.7951 Z" stroke-linecap="round"/>
</g>
<g transform="matrix(1 0 0 1 368.84 461.88)">
<path style="stroke: none; stroke-width: 1; stroke-dasharray: none; stroke-linecap: butt; stroke-dashoffset: 0; stroke-linejoin: miter; stroke-miterlimit: 4; fill:#e8dbdb; fill-rule: nonzero; opacity: 1;" vector-effect="non-scaling-stroke" transform=" translate(-126.3, -184.47)" d="M 139.57477 185.38782 L 113.01908 185.38782 C 112.51245 185.38782 112.1002 184.97557 112.1002 184.46894 C 112.1002 183.96231 112.51244 183.55027 113.01908 183.55027 L 139.57477 183.55027 C 140.0814 183.55027 140.49346 183.96231 140.49346 184.46894 C 140.49346 184.97557 140.0814 185.38782 139.57477 185.38782 Z" stroke-linecap="round"/>
</g>
<g transform="matrix(1 0 0 1 368.84 452.09)">
<path style="stroke: none; stroke-width: 1; stroke-dasharray: none; stroke-linecap: butt; stroke-dashoffset: 0; stroke-linejoin: miter; stroke-miterlimit: 4; fill:#e8dbdb; fill-rule: nonzero; opacity: 1;" vector-effect="non-scaling-stroke" transform=" translate(-126.3, -174.68)" d="M 150.35848 175.59789 L 102.23536999999999 175.59789 C 101.72873999999999 175.59789 101.31648999999999 175.18564 101.31648999999999 174.67901 C 101.31648999999999 174.17238 101.72872999999998 173.76034 102.23536999999999 173.76034 L 150.35848 173.76034 C 150.86511 173.76034 151.27716999999998 174.17238 151.27716999999998 174.67901 C 151.27716999999998 175.18564 150.86511 175.59789 150.35848 175.59789 Z" stroke-linecap="round"/>
</g>
<g transform="matrix(1 0 0 1 384.7 469.84)">
<path style="stroke: none; stroke-width: 1; stroke-dasharray: none; stroke-linecap: butt; stroke-dashoffset: 0; stroke-linejoin: miter; stroke-miterlimit: 4; fill:#e8dbdb; fill-rule: nonzero; opacity: 1;" vector-effect="non-scaling-stroke" transform=" translate(-142.16, -192.44)" d="M 150.84984 193.35418 L 133.4652 193.35418 C 132.95857 193.35418 132.54632 192.94193 132.54632 192.4353 C 132.54632 191.92867 132.95856 191.51663000000002 133.4652 191.51663000000002 L 150.84984 191.51663000000002 C 151.35647 191.51663000000002 151.76853 191.92867 151.76853 192.4353 C 151.76853 192.94193 151.35647 193.35418 150.84984 193.35418 Z" stroke-linecap="round"/>
</g>
<g transform="matrix(1 0 0 1 537.7 537.54)">
<circle style="stroke: none; stroke-width: 1; stroke-dasharray: none; stroke-linecap: butt; stroke-dashoffset: 0; stroke-linejoin: miter; stroke-miterlimit: 4; fill:#ffffff; fill-rule: nonzero; opacity: 1;" vector-effect="non-scaling-stroke" cx="0" cy="0" r="10"/>
</g>
<g transform="matrix(1 0 0 1 396.7 486.54)">
<circle style="stroke: none; stroke-width: 1; stroke-dasharray: none; stroke-linecap: butt; stroke-dashoffset: 0; stroke-linejoin: miter; stroke-miterlimit: 4; fill:#ffffff; fill-rule: nonzero; opacity: 1;" vector-effect="non-scaling-stroke" cx="0" cy="0" r="10"/>
</g>
<g transform="matrix(1 0 0 1 444.7 623.54)">
<circle style="stroke: none; stroke-width: 1; stroke-dasharray: none; stroke-linecap: butt; stroke-dashoffset: 0; stroke-linejoin: miter; stroke-miterlimit: 4; fill:#ffffff; fill-rule: nonzero; opacity: 1;" vector-effect="non-scaling-stroke" cx="0" cy="0" r="10"/>
</g>
<g transform="matrix(1 0 0 1 466.3 344.06)">
<ellipse style="stroke: none; stroke-width: 1; stroke-dasharray: none; stroke-linecap: butt; stroke-dashoffset: 0; stroke-linejoin: miter; stroke-miterlimit: 4; fill:#000000; fill-rule: nonzero; opacity: 1;" vector-effect="non-scaling-stroke" cx="0" cy="0" rx="12.46327" ry="12.20069"/>
</g>
<g transform="matrix(1 0 0 1 532.67 335.71)">
<path style="stroke: none; stroke-width: 1; stroke-dasharray: none; stroke-linecap: butt; stroke-dashoffset: 0; stroke-linejoin: miter; stroke-miterlimit: 4; fill:#000000; fill-rule: nonzero; opacity: 1;" vector-effect="non-scaling-stroke" transform=" translate(-290.13, -58.3)" d="M 323.66919 62.47819 L 256.58423000000005 62.47819 C 254.28281000000004 62.47819 252.41031000000004 60.6057 252.41031000000004 58.304269999999995 C 252.41031000000004 56.00283999999999 254.28281000000004 54.13034999999999 256.58423000000005 54.13034999999999 L 323.66919000000007 54.13034999999999 C 325.9706100000001 54.13034999999999 327.8431100000001 56.00283999999999 327.8431100000001 58.304269999999995 C 327.8431100000001 60.6057 325.9706100000001 62.47819 323.66919000000007 62.47819 Z" stroke-linecap="round"/>
</g>
<g transform="matrix(1 0 0 1 558.85 349.84)">
<path style="stroke: none; stroke-width: 1; stroke-dasharray: none; stroke-linecap: butt; stroke-dashoffset: 0; stroke-linejoin: miter; stroke-miterlimit: 4; fill:#000000; fill-rule: nonzero; opacity: 1;" vector-effect="non-scaling-stroke" transform=" translate(-316.3, -72.43)" d="M 376.02252 76.6053 L 256.58423 76.6053 C 254.28280999999998 76.6053 252.41030999999998 74.73281 252.41030999999998 72.43138 C 252.41030999999998 70.12995000000001 254.28280999999998 68.25746000000001 256.58423 68.25746000000001 L 376.02252 68.25746000000001 C 378.32394 68.25746000000001 380.19644 70.12995000000001 380.19644 72.43138 C 380.19644 74.73281 378.32394 76.6053 376.02252 76.6053 Z" stroke-linecap="round"/>
</g>
<g transform="matrix(1 0 0 1 285.91 399.64)">
<ellipse style="stroke: none; stroke-width: 1; stroke-dasharray: none; stroke-linecap: butt; stroke-dashoffset: 0; stroke-linejoin: miter; stroke-miterlimit: 4; fill:#000000; fill-rule: nonzero; opacity: 1;" vector-effect="non-scaling-stroke" cx="0" cy="0" rx="8.06605" ry="7.8961"/>
</g>
<g transform="matrix(1 0 0 1 328.86 394.24)">
<path style="stroke: none; stroke-width: 1; stroke-dasharray: none; stroke-linecap: butt; stroke-dashoffset: 0; stroke-linejoin: miter; stroke-miterlimit: 4; fill:#000000; fill-rule: nonzero; opacity: 1;" vector-effect="non-scaling-stroke" transform=" translate(-86.31, -116.83)" d="M 108.02125 119.53295 L 64.60485 119.53295 C 63.1154 119.53295 61.903549999999996 118.3211 61.903549999999996 116.83165 C 61.903549999999996 115.34219999999999 63.115399999999994 114.13034999999999 64.60485 114.13034999999999 L 108.02125000000001 114.13034999999999 C 109.51070000000001 114.13034999999999 110.72255000000001 115.34219999999999 110.72255000000001 116.83165 C 110.72255000000001 118.3211 109.51070000000001 119.53295 108.02126000000001 119.53295 Z" stroke-linecap="round"/>
</g>
<g transform="matrix(1 0 0 1 345.8 403.38)">
<path style="stroke: none; stroke-width: 1; stroke-dasharray: none; stroke-linecap: butt; stroke-dashoffset: 0; stroke-linejoin: miter; stroke-miterlimit: 4; fill:#000000; fill-rule: nonzero; opacity: 1;" vector-effect="non-scaling-stroke" transform=" translate(-103.25, -125.97)" d="M 141.90355 128.67582 L 64.60485 128.67582 C 63.1154 128.67582 61.903549999999996 127.46396999999999 61.903549999999996 125.97451999999998 C 61.903549999999996 124.48506999999998 63.115399999999994 123.27321999999998 64.60485 123.27321999999998 L 141.90355 123.27321999999998 C 143.39301 123.27321999999998 144.60484 124.48506999999998 144.60484 125.97451999999998 C 144.60484 127.46396999999999 143.39299 128.67582 141.90355 128.67582 Z" stroke-linecap="round"/>
</g>
<g transform="matrix(1 0 0 1 527.91 680.64)">
<ellipse style="stroke: none; stroke-width: 1; stroke-dasharray: none; stroke-linecap: butt; stroke-dashoffset: 0; stroke-linejoin: miter; stroke-miterlimit: 4; fill:#000000; fill-rule: nonzero; opacity: 1;" vector-effect="non-scaling-stroke" cx="0" cy="0" rx="8.06604" ry="7.89609"/>
</g>
<g transform="matrix(1 0 0 1 570.86 675.24)">
<path style="stroke: none; stroke-width: 1; stroke-dasharray: none; stroke-linecap: butt; stroke-dashoffset: 0; stroke-linejoin: miter; stroke-miterlimit: 4; fill:#000000; fill-rule: nonzero; opacity: 1;" vector-effect="non-scaling-stroke" transform=" translate(-328.31, -397.83)" d="M 350.02124 400.53295 L 306.60483 400.53295 C 305.11539 400.53295 303.90354 399.3211 303.90354 397.83166000000006 C 303.90354 396.3422200000001 305.11539000000005 395.1303700000001 306.60483 395.1303700000001 L 350.02124 395.1303700000001 C 351.51068 395.1303700000001 352.72253 396.3422200000001 352.72253 397.83166000000006 C 352.72253 399.3211 351.51068 400.53295 350.02124000000003 400.53295 Z" stroke-linecap="round"/>
</g>
<g transform="matrix(1 0 0 1 587.8 684.38)">
<path style="stroke: none; stroke-width: 1; stroke-dasharray: none; stroke-linecap: butt; stroke-dashoffset: 0; stroke-linejoin: miter; stroke-miterlimit: 4; fill:#000000; fill-rule: nonzero; opacity: 1;" vector-effect="non-scaling-stroke" transform=" translate(-345.25, -406.97)" d="M 383.90356 409.67581 L 306.60485000000006 409.67581 C 305.11541000000005 409.67581 303.9035600000001 408.46396 303.9035600000001 406.97452 C 303.9035600000001 405.48508 305.1154100000001 404.27323 306.60485000000006 404.27323 L 383.9035600000001 404.27323 C 385.3930000000001 404.27323 386.60485000000006 405.48508000000004 386.60485000000006 406.97452 C 386.60485000000006 408.46395999999993 385.39300000000003 409.67580999999996 383.9035600000001 409.67580999999996 Z" stroke-linecap="round"/>
</g>
<g transform="matrix(1 0 0 1 429.95 480.88)">
<rect style="stroke: none; stroke-width: 1; stroke-dasharray: none; stroke-linecap: butt; stroke-dashoffset: 0; stroke-linejoin: miter; stroke-miterlimit: 4; fill:#e8dbdb; fill-rule: nonzero; opacity: 1;" vector-effect="non-scaling-stroke" x="-1" y="-47.5" rx="0" ry="0" width="2" height="95"/>
</g>
<g transform="matrix(1 0 0 1 429.95 528.38)">
<circle style="stroke: none; stroke-width: 1; stroke-dasharray: none; stroke-linecap: butt; stroke-dashoffset: 0; stroke-linejoin: miter; stroke-miterlimit: 4; fill:#e8dbdb; fill-rule: nonzero; opacity: 1;" vector-effect="non-scaling-stroke" cx="0" cy="0" r="6.00001"/>
</g>
<g transform="matrix(1 0 0 1 520.95 597.38)">
<circle style="stroke: none; stroke-width: 1; stroke-dasharray: none; stroke-linecap: butt; stroke-dashoffset: 0; stroke-linejoin: miter; stroke-miterlimit: 4; fill:#e8dbdb; fill-rule: nonzero; opacity: 1;" vector-effect="non-scaling-stroke" cx="0" cy="0" r="6"/>
</g>
<g transform="matrix(1 0 0 1 358.95 515.38)">
<circle style="stroke: none; stroke-width: 1; stroke-dasharray: none; stroke-linecap: butt; stroke-dashoffset: 0; stroke-linejoin: miter; stroke-miterlimit: 4; fill:#e8dbdb; fill-rule: nonzero; opacity: 1;" vector-effect="non-scaling-stroke" cx="0" cy="0" r="6"/>
</g>
<g transform="matrix(1 -0.03 0.03 1 340.36 516.88)">
<rect style="stroke: none; stroke-width: 1; stroke-dasharray: none; stroke-linecap: butt; stroke-dashoffset: 0; stroke-linejoin: miter; stroke-miterlimit: 4; fill:#e8dbdb; fill-rule: nonzero; opacity: 1;" vector-effect="non-scaling-stroke" x="-16.413935" y="-1.00046" rx="0" ry="0" width="32.82787" height="2.00092"/>
</g>
<g transform="matrix(1 0 0 1 544.88 608.86)">
<polygon style="stroke: none; stroke-width: 1; stroke-dasharray: none; stroke-linecap: butt; stroke-dashoffset: 0; stroke-linejoin: miter; stroke-miterlimit: 4; fill:#e8dbdb; fill-rule: nonzero; opacity: 1;" vector-effect="non-scaling-stroke" points="24.88,11.48 -24.88,11.48 -24.88,-11.48 -22.88,-11.48 -22.88,9.48 24.88,9.48 24.88,11.48 "/>
</g>
<g transform="matrix(1 0 0 1 356.49 580.89)">
<circle style="stroke: none; stroke-width: 1; stroke-dasharray: none; stroke-linecap: butt; stroke-dashoffset: 0; stroke-linejoin: miter; stroke-miterlimit: 4; fill:#e8dbdb; fill-rule: nonzero; opacity: 1;" vector-effect="non-scaling-stroke" cx="0" cy="0" r="6"/>
</g>
<g transform="matrix(1 0 0 1 379.83 592.38)">
<polygon style="stroke: none; stroke-width: 1; stroke-dasharray: none; stroke-linecap: butt; stroke-dashoffset: 0; stroke-linejoin: miter; stroke-miterlimit: 4; fill:#e8dbdb; fill-rule: nonzero; opacity: 1;" vector-effect="non-scaling-stroke" points="24.88,11.48 -24.88,11.48 -24.88,-11.48 -22.88,-11.48 -22.88,9.48 24.88,9.48 24.88,11.48 "/>
</g>
<g transform="matrix(1 0 0 1 437.46 559.06)">
<rect style="stroke: none; stroke-width: 1; stroke-dasharray: none; stroke-linecap: butt; stroke-dashoffset: 0; stroke-linejoin: miter; stroke-miterlimit: 4; fill:#e8dbdb; fill-rule: nonzero; opacity: 1;" vector-effect="non-scaling-stroke" x="-119.491215" y="-1" rx="0" ry="0" width="238.98243" height="2"/>
</g>
</svg>